<svg xmlns="http://www.w3.org/2000/svg" width="24" height="24" viewBox="0 0 20.729 20.729">
  <defs>
    <style>
      .cls-1 {
        fill: none;
        stroke: #bdb6ad;
        stroke-width: 1px;
        fill-rule: evenodd;
      }
    </style>
  </defs>
  <path id="activity" class="cls-1" d="M453.833,663.887a0.837,0.837,0,1,1-1.569-.583,4.313,4.313,0,0,0-.285-2.288l-1.172-.611c-0.186,2.08-1.161,4.97-1.7,5.311l-0.558.636,0.126,0.49c0.365,0.106.9,0.266,1.437,0.446,1.772,0.587,2.409.921,2.457,1.623a0.838,0.838,0,0,1-.777.9,0.562,0.562,0,0,1-.058,0,0.833,0.833,0,0,1-.682-0.356,22.378,22.378,0,0,0-3.287-1.123L447.3,668.2l-0.084-.328-0.852.972-3.989,4.851a0.832,0.832,0,0,1-1.177.112,0.843,0.843,0,0,1-.111-1.184l4.014-4.882,1.608-1.833-0.27-1.045a0.872,0.872,0,0,1-.022-0.142l-0.024-.01-0.139-2.69-0.832,1.17-2.516,1.246a0.825,0.825,0,0,1-.368.087,0.842,0.842,0,0,1-.37-1.6l2.139-1.059,1.607-2.259a0.773,0.773,0,0,1,.206-0.194v0l0.114-.07a7.232,7.232,0,0,1,3.562-1.152,0.818,0.818,0,0,1,.546.075l2.959,1.542,0.117,0.28C453.515,660.325,454.365,662.433,453.833,663.887Zm-6.756-5.532a1.679,1.679,0,1,1,1.668-1.678A1.673,1.673,0,0,1,447.077,658.355Zm-8.318,15.184a1.768,1.768,0,1,1,1.756-1.768A1.762,1.762,0,0,1,438.759,673.539Z" transform="translate(-435.151 -654.136)"/>
</svg>
