<svg xmlns="http://www.w3.org/2000/svg" width="40" height="40" viewBox="0 0 40 40">
  <defs>
    <style>
      .cls-1 {
        fill: #fff;
        fill-rule: evenodd;
      }
    </style>
  </defs>
  <path id="addGlass" class="cls-1" d="M651.518,832.094l-0.368.328c-0.343.313-2.361,1.862-8.426,1.862s-8.08-1.553-8.426-1.866l-0.366-.323-2.759-27.089a1.751,1.751,0,0,1,.429-1.34,1.692,1.692,0,0,1,1.266-.573H652.58a1.689,1.689,0,0,1,1.265.573,1.754,1.754,0,0,1,.431,1.34Zm-0.483-25.872a1.69,1.69,0,0,0-1.266-.573H635.682a1.688,1.688,0,0,0-1.265.573,1.756,1.756,0,0,0-.431,1.341l2.354,23.125c0.711,0.343,2.584,1.015,6.385,1.015,3.777,0,5.652-.664,6.387-1.02l2.352-23.12A1.755,1.755,0,0,0,651.035,806.222Zm-8.559,23.3a8.656,8.656,0,0,1-3.892-.807L637.2,813.726c3.238-.152,6.883.694,9.852,0.757,0.455,0.009.92-.024,1.383-0.048l-1.319,14.279A15.21,15.21,0,0,1,642.476,829.521Zm3.26-8.936v1.3a21.019,21.019,0,0,0-2.2,0,21.746,21.746,0,0,0,0,2.212h-1.3a18.138,18.138,0,0,0,0-2.213,17.608,17.608,0,0,0-2.2,0v-1.3s2.136,0.067,2.2,0,0-2.214,0-2.214h1.3a21.528,21.528,0,0,0,0,2.215A21.861,21.861,0,0,0,645.736,820.585Z" transform="translate(-622.735 -798.688)"/>
</svg>
