<svg xmlns="http://www.w3.org/2000/svg" width="73.626" height="73.604" viewBox="0 0 73.626 73.604">
  <g id="analytics" transform="translate(0 511.849)">
    <path id="Path_1951" data-name="Path 1951" d="M80.624-511.626a6.074,6.074,0,0,0-4.213,6.3,6.764,6.764,0,0,0,.4,1.927l.331.762L72.2-497.692l-4.961,4.961-.7-.331a4.641,4.641,0,0,0-2.373-.331,4.379,4.379,0,0,0-2.617.46,7.421,7.421,0,0,0-1.611,1.05l-.647.6-3.667-1.05-3.681-1.05v-.532a6.746,6.746,0,0,0-1.15-3.192,6.265,6.265,0,0,0-10.066,0,6.478,6.478,0,0,0-.92,5.364l.23.762-.417.331c-.216.173-2.344,1.869-4.717,3.753l-4.314,3.451-.791-.374a4.491,4.491,0,0,0-2.459-.374,4.225,4.225,0,0,0-2.747.546,5.915,5.915,0,0,0-3.379,5.953,6.147,6.147,0,0,0,7.1,5.68,6.2,6.2,0,0,0,4.9-8.038l-.345-1.05,4.587-3.667,4.587-3.653.6.331a6.457,6.457,0,0,0,5.019.518,6.466,6.466,0,0,0,3.02-2.128c.23-.316.489-.561.575-.532s1.208.36,2.473.719,2.732.777,3.25.935l.949.288.072,1.28a4.95,4.95,0,0,0,.518,2.229,6.2,6.2,0,0,0,11.274,0,4.854,4.854,0,0,0,.5-2.186,4.759,4.759,0,0,0-.3-2.387l-.388-1.15,4.9-4.9,4.918-4.918.805.331a6.237,6.237,0,0,0,7.967-3.178,5.21,5.21,0,0,0,.5-2.128,5.937,5.937,0,0,0-3.365-5.953,4.461,4.461,0,0,0-2.545-.59A5.731,5.731,0,0,0,80.624-511.626Zm3.178,3.192a3.094,3.094,0,0,1,1.711,3.164,3.173,3.173,0,0,1-1.265,1.941c-.518.417-.647.446-1.682.446s-1.165-.029-1.682-.446a5.042,5.042,0,0,1-.863-.906,2.976,2.976,0,0,1,2.545-4.472A3.674,3.674,0,0,1,83.8-508.434ZM47.276-495.98a2.939,2.939,0,0,1-.058,5.062,2.938,2.938,0,0,1-4.012-4.012A2.9,2.9,0,0,1,47.276-495.98ZM65.4-490.027a3.094,3.094,0,0,1,1.711,3.164,3.173,3.173,0,0,1-1.265,1.941c-.518.417-.647.446-1.682.446s-1.165-.029-1.682-.446a5.044,5.044,0,0,1-.863-.906,2.976,2.976,0,0,1,2.545-4.472A3.674,3.674,0,0,1,65.4-490.027Zm-36.813,9.2a3.094,3.094,0,0,1,1.711,3.164,3.173,3.173,0,0,1-1.265,1.941c-.518.417-.647.446-1.682.446s-1.165-.029-1.682-.446a5.043,5.043,0,0,1-.863-.906,2.976,2.976,0,0,1,2.545-4.472A3.674,3.674,0,0,1,28.582-480.824Z" transform="translate(-18.142)" fill="#5dc267"/>
    <path id="Path_1952" data-name="Path 1952" d="M59-341.712a1.774,1.774,0,0,0-.6.561c-.115.2-.158,7.147-.158,22.721v22.447H52.2v-13.273c0-14.581.058-13.647-.863-14.121-.345-.173-1.251-.216-5.321-.216s-4.976.043-5.321.216c-.92.475-.863-.46-.863,14.121v13.273h-6.04v-16.25c0-17.5.029-16.853-.7-17.256a99.475,99.475,0,0,0-10.958,0c-.733.4-.7-.244-.7,17.256v16.25h-6.04v-8.671c0-9.505.043-9.045-.863-9.52-.618-.316-10.023-.316-10.641,0-.906.475-.863.014-.863,9.505v8.657l-1.079.058c-.949.043-1.107.1-1.51.475A1.2,1.2,0,0,0,0-294.359a1.269,1.269,0,0,0,.417,1.122l.417.417H72.792l.417-.417a1.269,1.269,0,0,0,.417-1.122,1.2,1.2,0,0,0-.431-1.122c-.4-.374-.561-.431-1.51-.475l-1.079-.058v-22.462c0-20.118-.029-22.49-.23-22.778-.5-.719-.69-.748-5.982-.748C59.764-342,59.433-341.986,59-341.712Zm8.441,24.3v21.426H61.4v-42.853h6.04ZM30.63-311.227v15.243H24.59V-326.47h6.04Zm18.407,3.02v12.223H43V-320.43h6.04Zm-36.813,4.6v7.621H6.183v-15.243h6.04Z" transform="translate(0 -145.424)" fill="#5dc267"/>
  </g>
</svg>
