<svg id="blog" xmlns="http://www.w3.org/2000/svg" width="86.013" height="85.932" viewBox="0 0 86.013 85.932">
  <path id="Path_1920" data-name="Path 1920" d="M11.886-511.563l-.437.454v26.662h-.571c-2.268,0-5.41,2.1-6.569,4.368-.974,1.9-.924.941-.924,21.286v18.7H2.8A2.638,2.638,0,0,0,.731-439c-.689.773-.756,1.109-.672,2.99a10.835,10.835,0,0,0,7.375,9.542l1.243.4H77.389l1.243-.4a10.847,10.847,0,0,0,7.375-9.542c.1-1.848.017-2.218-.672-2.99a2.638,2.638,0,0,0-2.066-1.092h-.588v-33.331l1.68-1.7c1.663-1.7,1.68-1.73,1.68-2.52v-.806l-3.73-3.763c-2.066-2.083-3.948-3.881-4.2-4.015-.924-.487-1.63-.286-2.772.823l-.722.689V-511.11l-.437-.454L73.727-512H49.8l-.454.437a1.891,1.891,0,0,0,0,2.486l.454.437H71.257v27.3l-6.182,6.182-6.166,6.166H39.791c-17.254,0-19.152.034-19.522.269a1.871,1.871,0,0,0,0,2.822c.37.235,2.134.269,17.842.269H55.549l-3.7,3.7-3.7,3.7H34.415c-15.221,0-14.4-.067-14.717,1.092a1.761,1.761,0,0,0,.437,1.848l.437.42H44.8L43.5-453.586l-1.294,1.31-2.671,6.048-2.654,6.048-11.038.05-11.038.034V-508.64H36.263l.454-.437a1.891,1.891,0,0,0,0-2.486L36.263-512H12.339Zm67.738,31.7,2.218,2.218L66.3-462.1l-15.54,15.54-2.268-2.268L46.225-451.1l15.49-15.49c8.534-8.534,15.54-15.506,15.59-15.506S78.4-481.088,79.624-479.862ZM11.449-460.508V-440.1h-4.7V-457.87c0-10.416.067-18.161.168-18.732a5.16,5.16,0,0,1,1.646-3.158,4.593,4.593,0,0,1,2.52-1.142l.37-.017Zm67.872,5.46V-440.1h-4.7V-465.38l2.3-2.3C78.2-468.958,79.254-470,79.271-470,79.3-470,79.321-463.28,79.321-455.048Zm-8.114,14.9c-.034.034-5.611.034-12.4.017l-12.331-.05,2.621-1.142,2.6-1.142,9.727-9.727,9.744-9.744.05,10.87C71.24-445.1,71.24-440.18,71.207-440.146Zm-23.638-4.486c0,.067-5.057,2.352-5.88,2.654a12.968,12.968,0,0,1,.941-2.386c.588-1.344,1.193-2.722,1.327-3.074l.269-.622,1.663,1.663C46.813-445.472,47.569-444.682,47.569-444.632Zm34.894,8.854a7.811,7.811,0,0,1-4.2,5.594,8.443,8.443,0,0,1-2.318.672c-1.68.218-64.143.218-65.823,0a8.443,8.443,0,0,1-2.318-.672,7.811,7.811,0,0,1-4.2-5.594l-.1-.958H82.564Z" transform="translate(-0.03 512)" fill="#5dc267"/>
  <path id="Path_1921" data-name="Path 1921" d="M246.437-511.563A1.425,1.425,0,0,0,246-510.32a1.425,1.425,0,0,0,.437,1.243,1.425,1.425,0,0,0,1.243.437,1.425,1.425,0,0,0,1.243-.437,1.425,1.425,0,0,0,.437-1.243,1.425,1.425,0,0,0-.437-1.243A1.425,1.425,0,0,0,247.68-512,1.425,1.425,0,0,0,246.437-511.563Z" transform="translate(-204.677 512)" fill="#5dc267"/>
  <path id="Path_1922" data-name="Path 1922" d="M117.294-447.7a1.87,1.87,0,0,0,.034,2.789c.353.235,1.008.269,4.334.269h3.931l.437-.42a1.771,1.771,0,0,0,.487-1.68,2.09,2.09,0,0,0-.487-.84l-.437-.42h-3.965C118.134-448,117.613-447.966,117.294-447.7Z" transform="translate(-97.088 458.752)" fill="#5dc267"/>
  <path id="Path_1923" data-name="Path 1923" d="M211.437-447.563A1.425,1.425,0,0,0,211-446.32a1.425,1.425,0,0,0,.437,1.243l.454.437h29.131l.437-.42a1.736,1.736,0,0,0,0-2.52l-.437-.42H211.89Z" transform="translate(-175.557 458.752)" fill="#5dc267"/>
  <path id="Path_1924" data-name="Path 1924" d="M117.281-383.7a1.911,1.911,0,0,0-.538,1.949c.319,1.176-.487,1.109,14.314,1.109H144.4l.454-.437a1.425,1.425,0,0,0,.437-1.243,1.425,1.425,0,0,0-.437-1.243L144.4-384H131.023C118.608-384,117.617-383.966,117.281-383.7Z" transform="translate(-97.076 405.504)" fill="#5dc267"/>
  <path id="Path_1925" data-name="Path 1925" d="M323.064-383.58a1.771,1.771,0,0,0-.487,1.68,2.091,2.091,0,0,0,.487.84l.437.42h10.315l.437-.42a1.761,1.761,0,0,0,.437-1.848c-.3-1.075-.42-1.092-6.082-1.092H323.5Z" transform="translate(-268.352 405.504)" fill="#5dc267"/>
  <path id="Path_1926" data-name="Path 1926" d="M117.294-319.7a1.87,1.87,0,0,0,.034,2.789c.353.235,1.327.269,8.148.269h7.745l.4-.4a1.721,1.721,0,0,0,0-2.554l-.4-.4h-7.778C118.318-320,117.63-319.966,117.294-319.7Z" transform="translate(-97.088 352.256)" fill="#5dc267"/>
  <path id="Path_1927" data-name="Path 1927" d="M256.487-319.513A1.393,1.393,0,0,0,256-318.32a1.393,1.393,0,0,0,.487,1.193l.487.487h17.119l.437-.42a1.736,1.736,0,0,0,0-2.52l-.437-.42H256.974Z" transform="translate(-212.997 352.256)" fill="#5dc267"/>
</svg>
