<svg xmlns="http://www.w3.org/2000/svg" width="35.467" height="35.491" viewBox="0 0 35.467 35.491">
  <g id="bread" transform="translate(0 0)">
    <path id="Path_2057" data-name="Path 2057" d="M323.991-479.778a6.363,6.363,0,0,0-2,2.9,27.448,27.448,0,0,0-1.52,5.265c-.04.174-.024.182.206.135a10.942,10.942,0,0,1,5.107.277c.6.174.792.317.871.633a.6.6,0,0,1-.515.641,6.329,6.329,0,0,1-.982-.206,9.363,9.363,0,0,0-4.568-.1c-.325.1-.348.127-.4.435-.15.895-.388,3.705-.435,5.114l-.047,1.576.19-.048a10.543,10.543,0,0,1,5.257.19c.6.174.792.317.871.633a.6.6,0,0,1-.515.641,6.54,6.54,0,0,1-.966-.2,9.166,9.166,0,0,0-4.378-.119l-.4.1.008,1.7c.008.934.055,2.114.1,2.613.143,1.5.34,3.151.4,3.23.032.047.23.04.562-.032a10.508,10.508,0,0,1,4.639.214c.808.206.99.3,1.14.562a.346.346,0,0,1,0,.435c-.23.4-.388.428-1.322.174a9.807,9.807,0,0,0-4.378-.206c-.42.1-.435.111-.412.333.04.348.309,1.56.538,2.415l.206.752.515.317a5.4,5.4,0,0,1,2.2,2.921,2.94,2.94,0,0,1,.1,1.124c-.032.625-.032.649.158.736a1.64,1.64,0,0,0,1.378-.135c1.75-1.116,3.3-5.5,3.943-11.155a47.952,47.952,0,0,0,.325-6.357,47.952,47.952,0,0,0-.325-6.357c-.641-5.653-2.193-10.039-3.943-11.155a1.277,1.277,0,0,0-.8-.222A1.277,1.277,0,0,0,323.991-479.778Z" transform="translate(-296.923 480.015)" fill="#fff"/>
    <path id="Path_2058" data-name="Path 2058" d="M414.148-480.074c.032.055.253.388.483.736,1.544,2.312,2.668,6.563,3.183,11.994.143,1.441.19,6.817.087,8.487-.388,5.993-1.623,10.949-3.373,13.491l-.428.625.277.024c.562.055,1.338-.618,2-1.718,1.449-2.446,2.51-6.991,2.866-12.264.1-1.568.1-5.906,0-7.474-.459-6.919-2.153-12.485-4.188-13.776C414.678-480.185,414.021-480.272,414.148-480.074Z" transform="translate(-383.849 480.184)" fill="#fff"/>
    <path id="Path_2059" data-name="Path 2059" d="M38.832-327.743c-2.668.348-4.9,1.156-6,2.193-.657.61-.831.942-.831,1.544,0,.839.53,1.488,1.821,2.241.4.238.562.38.625.562s.087,1.979.087,5.859c0,3.088.008,5.613.024,5.613s.182-.047.38-.111.443-.135.562-.158c.15-.032.317-.19.53-.507a6.552,6.552,0,0,1,2.628-2.233c.523-.23.618-.309.823-.657a7.886,7.886,0,0,1,2.019-1.979,6.877,6.877,0,0,1,3.8-1.013,7.041,7.041,0,0,1,3.032.6c.127.055.135-.1.135-2.549a22.464,22.464,0,0,1,.087-2.866c.071-.2.23-.332.72-.618,1.164-.665,1.726-1.385,1.726-2.2a1.842,1.842,0,0,0-.815-1.512c-1.14-1.069-3.349-1.868-6.072-2.209A32.669,32.669,0,0,0,38.832-327.743ZM43.678-326a13.549,13.549,0,0,1,2.945.72c.578.253.7.6.356,1-.158.19-.507.182-1.069-.016a13.673,13.673,0,0,0-4.41-.633,13.673,13.673,0,0,0-4.41.633c-.578.206-.91.206-1.093,0a.594.594,0,0,1,.024-.8,10.211,10.211,0,0,1,3.262-.9A22.631,22.631,0,0,1,43.678-326Z" transform="translate(-32 339.91)" fill="#fff"/>
    <path id="Path_2060" data-name="Path 2060" d="M242.186-327.715a5.838,5.838,0,0,1,2.763,2.407,2.2,2.2,0,0,1,.206,1.188,1.911,1.911,0,0,1-.23,1.188,5.741,5.741,0,0,1-1.678,1.75l-.507.325v5.756l.538.546a7.675,7.675,0,0,1,.808.982,1.479,1.479,0,0,0,.863.7,6.593,6.593,0,0,1,2.636,2.241c.174.253.333.451.348.428a6.953,6.953,0,0,0-.206-1.013,47.292,47.292,0,0,1-1.029-7.339,72.991,72.991,0,0,1,.127-9.025l.048-.412H241.6Z" transform="translate(-225.006 340.048)" fill="#fff"/>
    <path id="Path_2061" data-name="Path 2061" d="M131.809-167.632a4.88,4.88,0,0,0-1.71.768,5.355,5.355,0,0,0-2.019,2.533c-.507,1.346-.5,2.177.048,4.742.467,2.209.515,2.391.713,2.494s8.986.111,9.184,0,.245-.285.713-2.494c.546-2.573.554-3.4.04-4.758a5.406,5.406,0,0,0-3.325-3.167,4.7,4.7,0,0,0-1.861-.245A5.592,5.592,0,0,0,131.809-167.632Z" transform="translate(-120.132 192.498)" fill="#fff"/>
    <path id="Path_2062" data-name="Path 2062" d="M82.239-118.521c-1.615,1.275-2.684,4.236-2.027,5.582a1.482,1.482,0,0,0,.673.823c.253.15.4.166,1.5.166,1.029,0,1.2-.016,1.172-.119-.135-.348-.871-4.054-.918-4.592a8.246,8.246,0,0,1,.111-2C82.809-118.909,82.7-118.885,82.239-118.521Z" transform="translate(-76.214 147.432)" fill="#fff"/>
    <path id="Path_2063" data-name="Path 2063" d="M276.092-118.747a12.145,12.145,0,0,1,.055,1.409,10.617,10.617,0,0,1-.42,3.072c-.23,1.061-.435,1.971-.467,2.035-.032.1.143.119,1.172.119,1.1,0,1.243-.016,1.5-.166a1.482,1.482,0,0,0,.673-.823c.657-1.346-.412-4.307-2.027-5.582A2.221,2.221,0,0,0,276.1-119C276.06-119,276.06-118.881,276.092-118.747Z" transform="translate(-255.998 147.595)" fill="#fff"/>
    <path id="Path_2064" data-name="Path 2064" d="M41.869-84.568a3.762,3.762,0,0,0-1.758,2.676,1.362,1.362,0,0,0,.1.728c.206.4.475.491,1.5.491h.91l-.253-.538a2.578,2.578,0,0,1-.277-1.29,5.672,5.672,0,0,1,.348-2.193C42.51-84.94,42.407-84.917,41.869-84.568Z" transform="translate(-39.462 116.156)" fill="#fff"/>
    <path id="Path_2065" data-name="Path 2065" d="M328.282-84.826a5.673,5.673,0,0,1,.348,2.193,2.579,2.579,0,0,1-.277,1.29l-.253.538h.91c1.029,0,1.3-.087,1.5-.491a2.871,2.871,0,0,0-.815-2.684A4.759,4.759,0,0,0,328.306-85C328.266-85,328.258-84.921,328.282-84.826Z" transform="translate(-304.658 116.287)" fill="#fff"/>
  </g>
</svg>
