<svg xmlns="http://www.w3.org/2000/svg" width="18.911" height="23.755" viewBox="0 0 18.911 23.755">
  <g id="calories-calculator" transform="translate(-52 512.5)">
    <path id="Path_2079" data-name="Path 2079" d="M175.464-512.268a3.816,3.816,0,0,1-1.3,2.41A4.3,4.3,0,0,0,173-507.934a5.352,5.352,0,0,0,.06,2.123,4.395,4.395,0,0,1-.644-.589,4.968,4.968,0,0,0-.7-.626,8.394,8.394,0,0,0-.311,1.492,5.447,5.447,0,0,0,.528,2.966l.158.315.334.056a2.782,2.782,0,0,1,1.061.413.909.909,0,0,0,.264.139.6.6,0,0,0-.093-.246,2.588,2.588,0,0,1-.283-1.2,2.331,2.331,0,0,1,.162-1,2.752,2.752,0,0,1,.389.329c.348.324.352.324.315.172a4.677,4.677,0,0,1-.032-.64,1.289,1.289,0,0,1,.125-.742,3.668,3.668,0,0,1,.431-.6,2.913,2.913,0,0,0,.658-.955l.07-.213.079.227a2.224,2.224,0,0,0,.552.82,2.056,2.056,0,0,1,.63,2.09l-.028.185.371-.366.371-.362.074.324a2.991,2.991,0,0,1-.181,1.873c-.116.232-.116.315,0,.315a2.674,2.674,0,0,1,.422.181c.269.134.38.172.422.134a6.052,6.052,0,0,0,.779-1.117,5.179,5.179,0,0,0,.612-2.786,5.738,5.738,0,0,0-.26-1.594l-.083-.264-.663.649c-.5.487-.654.621-.63.528a5.35,5.35,0,0,0,.051-1.951,3.885,3.885,0,0,0-.565-1.261c-.093-.13-.389-.482-.658-.783s-.561-.644-.644-.765a3.327,3.327,0,0,1-.607-1.548l-.032-.292Z" transform="translate(-113.842)" fill="#86d6ee"/>
    <path id="Path_2080" data-name="Path 2080" d="M92.764-282.976a2.573,2.573,0,0,0-1.2.709c-.26.26-.366.338-.468.338a2.75,2.75,0,0,0-1,.389,2.537,2.537,0,0,0-1.024,1.414,2.306,2.306,0,0,0-.074.292c0,.019,3.49.037,7.759.037h7.759l-.023-.222a2.383,2.383,0,0,0-.728-1.613,2.394,2.394,0,0,0-1.2-.691,2.6,2.6,0,0,0-1.71.19.641.641,0,0,1-.454.088,2.5,2.5,0,0,0-.514.019c-.3.051-.306.046-.5-.093a2.611,2.611,0,0,0-2.623-.2,3.593,3.593,0,0,0-.385.236l-.148.111-.348-.121a2.348,2.348,0,0,0-.473-.116.634.634,0,0,1-.348-.2A2.636,2.636,0,0,0,92.764-282.976Z" transform="translate(-35.285 -218.821)" fill="#86d6ee"/>
    <path id="Path_2081" data-name="Path 2081" d="M52-204.6c0,.227.014.579.032.788l.028.385H70.851l.028-.385c.019-.209.032-.561.032-.788v-.4H52Z" transform="translate(0 -293.247)" fill="#86d6ee"/>
    <path id="Path_2082" data-name="Path 2082" d="M56-162.935a13.169,13.169,0,0,0,.329,1.488,12.885,12.885,0,0,0,1.789,3.833l.25.362h13.8l.25-.362a12.885,12.885,0,0,0,1.789-3.833,13.169,13.169,0,0,0,.329-1.488c0-.056-1.386-.065-9.27-.065S56-162.991,56-162.935Z" transform="translate(-3.815 -333.3)" fill="#86d6ee"/>
    <path id="Path_2083" data-name="Path 2083" d="M115-30.282v.718h13.071V-31H115Z" transform="translate(-60.08 -459.182)" fill="#86d6ee"/>
  </g>
</svg>
