<svg xmlns="http://www.w3.org/2000/svg" width="29.445" height="40.547" viewBox="0 0 29.445 40.547">
  <g id="calories_1_1_" data-name="calories (1) (1)" transform="translate(-70.58 512)">
    <path id="Path_2050" data-name="Path 2050" d="M84.392-511.707a29.666,29.666,0,0,0-5.2,5.052A43.038,43.038,0,0,0,70.8-489.234a12.2,12.2,0,0,0-.214,3.088,10.535,10.535,0,0,0,.206,2.977,14.754,14.754,0,0,0,9.891,11.078,12.8,12.8,0,0,0,2.906.626l.293-.008-.341-.1a6.514,6.514,0,0,1-2.985-2.217,5.888,5.888,0,0,1-.839-5.369c.143-.428.451-1.243.689-1.821a59.115,59.115,0,0,1,4.11-7.713,1.143,1.143,0,0,1,1.576.047,59.244,59.244,0,0,1,4.229,8.061,7.769,7.769,0,0,1,.831,3.31,4.947,4.947,0,0,1-.5,2.384,6.084,6.084,0,0,1-3.286,3.175c-.729.3-.594.341.507.143a14.736,14.736,0,0,0,9.677-6.327,14.945,14.945,0,0,0,2.384-6.105,24.974,24.974,0,0,0-.04-4.791,48.7,48.7,0,0,0-1.845-7.776,43,43,0,0,0-4.664-9.851,1.351,1.351,0,0,0-.982-.507c-.554,0-.808.206-3.35,2.756l-2.518,2.51v-4.751c0-4.6-.008-4.759-.158-5.013a1.2,1.2,0,0,0-1.109-.57A1.213,1.213,0,0,0,84.392-511.707Z" fill="#fff"/>
    <path id="Path_2051" data-name="Path 2051" d="M215.715-175.872c-.451.776-1.964,3.817-2.36,4.743a6.745,6.745,0,0,0-.855,3.009,2.937,2.937,0,0,0,.182,1.188,3.7,3.7,0,0,0,2,2,2.881,2.881,0,0,0,1.314.182,2.278,2.278,0,0,0,1.465-.293,3.5,3.5,0,0,0,1.964-2.605c.135-.847-.063-1.671-.879-3.556-.4-.934-1.829-3.785-2.312-4.625l-.269-.467Z" transform="translate(-130.681 -309.117)" fill="#fff"/>
  </g>
</svg>
