<svg xmlns="http://www.w3.org/2000/svg" width="17.911" height="20.31" viewBox="0 0 17.911 20.31">
  <g id="carbohydrates" transform="translate(0 0)">
    <path id="Path_2072" data-name="Path 2072" d="M88.849-511.853a2.424,2.424,0,0,0-1.591,1.448l-.087.23-.179-.119a1.754,1.754,0,0,0-1.932.008,1.755,1.755,0,0,0-.722,1.567l.024.242-.365.024a1.4,1.4,0,0,0-1.039.468,1.352,1.352,0,0,0-.357.972,1,1,0,0,0,.127.583,1.506,1.506,0,0,0,.754.71l.226.091H95.252l.238-.1a1.5,1.5,0,0,0,.774-.778,1.43,1.43,0,0,0-.274-1.5,1.586,1.586,0,0,0-1.214-.468h-.163v-.409a1.438,1.438,0,0,0-.087-.635,1.8,1.8,0,0,0-1.119-1.008,1.767,1.767,0,0,0-1.46.226l-.159.115-.087-.23a2.416,2.416,0,0,0-1.611-1.452A3.352,3.352,0,0,0,88.849-511.853Z" transform="translate(-80.526 511.913)" fill="#feabe9"/>
    <path id="Path_2073" data-name="Path 2073" d="M30.75-323.921a1.1,1.1,0,0,0-.25.2c-.167.2-.2.389-.147.952a8.724,8.724,0,0,0,4.9,7.1,8.335,8.335,0,0,0,3.979.873,8.331,8.331,0,0,0,4.035-.849,8.753,8.753,0,0,0,4.963-7.284c.04-.536-.079-.817-.425-.992-.151-.079-.29-.079-8.534-.079C31.091-324,30.889-324,30.75-323.921Z" transform="translate(-30.33 331.455)" fill="#feabe9"/>
    <path id="Path_2074" data-name="Path 2074" d="M174-72.881a11.516,11.516,0,0,0,.04,1.27.8.8,0,0,0,.4.468c.147.075.25.079,2.821.079h2.67l.159-.091a1.126,1.126,0,0,0,.278-.258l.119-.175.012-1.206A9.449,9.449,0,0,0,180.475-74c-.02,0-.238.052-.488.119a11.247,11.247,0,0,1-5.459,0c-.246-.067-.464-.119-.484-.119A5.124,5.124,0,0,0,174-72.881Z" transform="translate(-168.3 91.374)" fill="#feabe9"/>
  </g>
</svg>
