<svg xmlns="http://www.w3.org/2000/svg" width="87.14" height="61" viewBox="0 0 87.14 61">
  <g id="dollar" transform="translate(0.075 435.348)">
    <path id="Path_1949" data-name="Path 1949" d="M42.4-435.272c-9.206.425-15.962,2.655-17.664,5.837-.357.681-.374.817-.306,5.445l.051,4.731-1.072-.119a28.267,28.267,0,0,0-6.466.153A21,21,0,0,0,1.061-405.713a22.2,22.2,0,0,0,0,14.022,21.155,21.155,0,0,0,12.627,12.627,22.917,22.917,0,0,0,10.329.953,22.629,22.629,0,0,0,8.832-3.608l1.021-.749,2.042.374a49.716,49.716,0,0,0,7.556.749c1.361,0,1.361,0,1.48.476a6.04,6.04,0,0,0,2.3,2.757c2.5,1.7,6.722,2.91,12.218,3.488a81.281,81.281,0,0,0,12.2.085c8.117-.8,13.733-2.995,15.077-5.871.289-.647.323-1.31.323-11.3,0-10.414,0-10.653-.357-11.367-1.515-3.131-8.338-5.462-17.408-5.939l-2.144-.119v-18.991l-.391-.9a7.825,7.825,0,0,0-3.795-3.369C58.51-434.523,50.444-435.663,42.4-435.272Zm10.3,3.982c4.969.7,8.577,1.8,10.091,3.148l.647.562-.442.459a7.593,7.593,0,0,1-1.753,1.072c-6.6,3.08-20.642,3.505-28.963.868-2.212-.7-4.254-1.821-4.254-2.348,0-.647,1.753-1.651,4.254-2.45a41.808,41.808,0,0,1,9.274-1.634A103.7,103.7,0,0,1,52.691-431.29Zm10.857,11.146c-.068,2.5-.153,2.638-2.212,3.642-5.411,2.655-17.085,3.471-25.73,1.8a5.639,5.639,0,0,1-2.927-1.123,22.575,22.575,0,0,0-4.254-2.28c-.17,0-.238-.6-.272-2.348L28.1-422.8l1.361.545c7.4,2.978,21.85,3.25,30.546.579.9-.272,2.042-.681,2.553-.9L63.5-423l.051.459C63.581-422.3,63.581-421.216,63.547-420.143Zm-38.595,4.816a17.348,17.348,0,0,1,12.354,12.116,11.861,11.861,0,0,1,.476,4.424,13.8,13.8,0,0,1-1.429,7.2,18.01,18.01,0,0,1-5.6,6.824,16.894,16.894,0,0,1-10.874,3.2A16.69,16.69,0,0,1,8.4-386.79a17.008,17.008,0,0,1-4.407-7.93,19.9,19.9,0,0,1-.017-7.9,17.336,17.336,0,0,1,13.784-13.018A19.858,19.858,0,0,1,24.953-415.328Zm38.629,4.1v2.093l-1.566.119c-7.675.545-13.239,2.042-15.69,4.2-.834.749-1,.766-3.982.562l-1.532-.119-.374-1.123a27.937,27.937,0,0,0-2.229-4.595l-.391-.579.6.1a65.347,65.347,0,0,0,9.087.391c6.364-.255,12.525-1.412,15.23-2.842a4.543,4.543,0,0,1,.732-.323A9.348,9.348,0,0,1,63.581-411.227Zm8.253,6.143c5.343.562,9.955,1.94,11.3,3.369l.391.442-.476.442c-1.463,1.361-5.224,2.536-10.448,3.267a83.152,83.152,0,0,1-13.188.085,38.768,38.768,0,0,1-7.675-1.651c-1.668-.6-3.4-1.583-3.591-2.059-.153-.391.425-.885,1.906-1.6a30.7,30.7,0,0,1,9.615-2.365A96.928,96.928,0,0,1,71.835-405.083Zm-27.312,7.5v2.961h-1.4a5.607,5.607,0,0,1-1.634-.153c-.187-.1-.187-.476-.017-1.991a19.518,19.518,0,0,0,.085-2.876l-.1-1.021,1.532.051,1.532.051Zm38.969,3.318a12.571,12.571,0,0,1-.17,2.689c-.647,1.242-5.139,2.791-10.125,3.54a84.933,84.933,0,0,1-15.145-.017c-4.135-.63-7.9-1.8-9.155-2.842l-.63-.51v-2.57c0-2.365.017-2.553.306-2.433a39.112,39.112,0,0,0,9.393,2.382,78.56,78.56,0,0,0,13.477.187c4.475-.425,9.478-1.549,11.316-2.553a3.583,3.583,0,0,1,.613-.272A11.964,11.964,0,0,1,83.491-394.261ZM44.4-390.891c.255.017.289.272.289,3.029v2.995l-2.042-.119a45.851,45.851,0,0,1-5.224-.528c-.357-.085-.323-.153.562-1.5a20.264,20.264,0,0,0,2.11-3.982,7.6,7.6,0,0,1,1.991-.017C43.2-390.959,44.233-390.891,44.4-390.891Zm39.02,8.985c-.187.477-2.2,1.566-3.965,2.144a43.337,43.337,0,0,1-13.58,1.821,43.748,43.748,0,0,1-13.529-1.8,8.115,8.115,0,0,1-3.506-1.8c-.34-.357-.374-.63-.442-2.876l-.068-2.467,1.157.476c8.032,3.369,25.015,3.25,32.979-.238l.936-.408.051,2.467C83.474-383.234,83.457-382.025,83.423-381.906Z" transform="translate(0 0)" fill="#5dc267"/>
    <path id="Path_1950" data-name="Path 1950" d="M89.236-303.7a1.487,1.487,0,0,0-.817,1.549c0,.63-.034.664-.885.97a5.313,5.313,0,0,0-2.025,1.446,5.6,5.6,0,0,0-1.923,4.7A4.678,4.678,0,0,0,84.1-292.4a6.129,6.129,0,0,0,2.416,2.859,7.3,7.3,0,0,0,3.25,1.055,3.11,3.11,0,0,1,3.267,3.71,2.973,2.973,0,0,1-4.271,1.906,2.907,2.907,0,0,1-1.549-2.331c-.221-1.208-.476-1.634-1.157-1.923a1.918,1.918,0,0,0-2.076.442c-.357.374-.408.6-.391,1.566a5.972,5.972,0,0,0,1.634,4.05,6.572,6.572,0,0,0,2.91,1.94c.238,0,.289.17.289,1.089s.068,1.174.425,1.6a1.675,1.675,0,0,0,2.025.476c.834-.357,1.123-.868,1.123-2.059v-1.021l.987-.425a6.945,6.945,0,0,0,3.182-3.148,4.834,4.834,0,0,0,.511-2.808,4.722,4.722,0,0,0-.562-2.927,6.584,6.584,0,0,0-5.582-3.693,3.6,3.6,0,0,1-2.416-.936,2.882,2.882,0,0,1,.7-4.714,2.993,2.993,0,0,1,3.08.255,2.878,2.878,0,0,1,1.208,2.059c.255,1.5.8,2.127,1.872,2.127,1.259,0,1.889-.936,1.736-2.553a6.725,6.725,0,0,0-3.761-5.292c-.885-.357-.953-.425-.953-.936A1.8,1.8,0,0,0,89.236-303.7Z" transform="translate(-69.422 -109.027)" fill="#5dc267"/>
  </g>
</svg>
