<svg xmlns="http://www.w3.org/2000/svg" width="109" height="79" viewBox="0 0 109 79">
  <defs>
    <style>
      .cls-1 {
        fill: #2d2d2d;
        fill-rule: evenodd;
      }
    </style>
  </defs>
  <path class="cls-1" d="M970,4290v-1.25c0-4-3.5-6.75-7.5-6.75H914a6.631,6.631,0,0,0-7,6.75v29.5c0,4,3,7.75,7,7.75h10v14l15-15v-25.62a9.249,9.249,0,0,1,9.625-9.38H970Zm39.08,3H949.917a6.92,6.92,0,0,0-6.917,6.92v37.16a6.92,6.92,0,0,0,6.917,6.92H980l17,17v-17h12.08a6.922,6.922,0,0,0,6.92-6.92v-37.16A6.922,6.922,0,0,0,1009.08,4293Zm-46.83,28.5a4.25,4.25,0,1,1,4.25-4.25A4.248,4.248,0,0,1,962.25,4321.5Zm18,0a4.25,4.25,0,1,1,4.25-4.25A4.248,4.248,0,0,1,980.25,4321.5Zm18,0a4.25,4.25,0,1,1,4.25-4.25A4.248,4.248,0,0,1,998.25,4321.5Z" transform="translate(-907 -4282)"/>
</svg>
