<svg xmlns="http://www.w3.org/2000/svg" width="22" height="22" viewBox="0 0 22 22">
  <defs>
    <style>
      .cls-1 {
        fill: #fff;
        fill-rule: evenodd;
      }
    </style>
  </defs>
  <path id="_-" data-name="-" class="cls-1" d="M582.8,827.708l-0.239.213c-0.223.2-1.534,1.209-5.475,1.209s-5.249-1.009-5.473-1.212l-0.239-.21-1.792-17.6a1.141,1.141,0,0,1,.279-0.871,1.1,1.1,0,0,1,.822-0.372h12.807a1.1,1.1,0,0,1,.822.373,1.14,1.14,0,0,1,.28.87ZM582.488,810.9a1.1,1.1,0,0,0-.822-0.372h-9.152a1.1,1.1,0,0,0-.822.372,1.137,1.137,0,0,0-.28.871l1.529,15.024a13.342,13.342,0,0,0,8.3,0l1.528-15.021A1.141,1.141,0,0,0,582.488,810.9Zm-5.561,15.137a5.624,5.624,0,0,1-2.528-.524l-0.293-1c2.1-.1,2.546.335,4.475,0.375,0.3,0.006,1.191.016,1.492,0l-0.132.624A9.891,9.891,0,0,1,576.927,826.036Z" transform="translate(-566.094 -808)"/>
</svg>
