<svg xmlns="http://www.w3.org/2000/svg" width="20" height="20" viewBox="0 0 20 20">
  <defs>
    <style>
      .cls-1 {
        fill: #ccc;
        fill-rule: evenodd;
      }
    </style>
  </defs>
  <path id="dob" class="cls-1" d="M536.263,415.421h0a0.842,0.842,0,0,0,0,1.684h0A0.842,0.842,0,1,0,536.263,415.421Zm-2.526-.842a0.842,0.842,0,1,0-.842-0.842A0.842,0.842,0,0,0,533.737,414.579Zm2.526-1.684h0a0.842,0.842,0,0,0,0,1.684h0A0.842,0.842,0,1,0,536.263,412.9Zm0.842-4.211H532.9v1.684h4.21v-1.684Zm1.684,5.895a0.842,0.842,0,1,0-.842-0.842A0.843,0.843,0,0,0,538.789,414.579Zm0,2.526a0.842,0.842,0,1,0-.842-0.842A0.843,0.843,0,0,0,538.789,417.105Zm-5.052,0a0.842,0.842,0,1,0-.842-0.842A0.842,0.842,0,0,0,533.737,417.105Zm-2.527,2.526a0.842,0.842,0,1,0-.842-0.842A0.843,0.843,0,0,0,531.21,419.631Zm10.106-10.947h-0.842v1.684h0.842v10.948H528.684V410.368h0.842v-1.684h-0.842A1.684,1.684,0,0,0,527,410.368v10.947A1.684,1.684,0,0,0,528.684,423h12.632A1.684,1.684,0,0,0,543,421.315V410.368A1.684,1.684,0,0,0,541.316,408.684Zm-10.106,8.421a0.842,0.842,0,1,0-.842-0.842A0.843,0.843,0,0,0,531.21,417.105Zm0-2.526a0.842,0.842,0,1,0-.842-0.842A0.843,0.843,0,0,0,531.21,414.579Zm2.527,5.052a0.842,0.842,0,1,0-.842-0.842A0.842,0.842,0,0,0,533.737,419.631Zm-2.527-9.263a0.843,0.843,0,0,0,.843-0.842v-1.684a0.843,0.843,0,0,0-1.685,0v1.684A0.843,0.843,0,0,0,531.21,410.368Zm7.579,0a0.843,0.843,0,0,0,.843-0.842v-1.684a0.843,0.843,0,0,0-1.685,0v1.684A0.843,0.843,0,0,0,538.789,410.368Z" transform="translate(-525 -405)"/>
</svg>
