<svg xmlns="http://www.w3.org/2000/svg" width="20" height="20" viewBox="0 0 20 20">
  <defs>
    <style>
      .cls-1 {
        fill: #bdb6ad;
        fill-rule: evenodd;
      }
    </style>
  </defs>
  <path id="DOB" class="cls-1" d="M1304.2,382.4a1,1,0,0,0,.62.457h0a1.019,1.019,0,0,0,.64-0.456,1.626,1.626,0,0,1,1.15-.688h0.01a1.586,1.586,0,0,1,1.12.629,1.062,1.062,0,0,0,.68.444h0a1.118,1.118,0,0,0,.7-0.443,1.536,1.536,0,0,1,1.11-.6,1.414,1.414,0,0,1,1.02.657,0.848,0.848,0,0,0,.54.417,1.072,1.072,0,0,0,.64-0.418,1.651,1.651,0,0,1,1.13-.623h0.02a1.444,1.444,0,0,1,1.05.619,0.836,0.836,0,0,0,.55.389,1.129,1.129,0,0,0,.69-0.443,1.536,1.536,0,0,1,1.11-.6,0.33,0.33,0,0,1-.02.66,0.962,0.962,0,0,0-.62.407,1.7,1.7,0,0,1-1.17.634h0a1.4,1.4,0,0,1-1.03-.609,0.853,0.853,0,0,0-.58-0.4,1.1,1.1,0,0,0-.67.433,1.55,1.55,0,0,1-1.12.608,1.417,1.417,0,0,1-1.03-.657,0.831,0.831,0,0,0-.53-0.417,1,1,0,0,0-.63.407,1.655,1.655,0,0,1-1.16.634h0a1.621,1.621,0,0,1-1.15-.644,1.02,1.02,0,0,0-.65-0.429h0a1.028,1.028,0,0,0-.67.474,1.557,1.557,0,0,1-1.13.67h0a1.529,1.529,0,0,1-1.11-.679,0.968,0.968,0,0,0-.61-0.446h0a0.33,0.33,0,1,1,0-.66A1.539,1.539,0,0,1,1304.2,382.4Zm0.98-6.162h0a1.4,1.4,0,0,1,1.02.62,0.924,0.924,0,0,0,.55.408h0.01a0.935,0.935,0,0,0,.56-0.407,1.474,1.474,0,0,1,1.07-.638h0.01a1.458,1.458,0,0,1,1.04.584,0.945,0.945,0,0,0,.6.4h0a0.98,0.98,0,0,0,.62-0.4,1.415,1.415,0,0,1,1.03-.555,1.3,1.3,0,0,1,.96.61,0.764,0.764,0,0,0,.47.371,0.941,0.941,0,0,0,.57-0.374,1.5,1.5,0,0,1,1.06-.577,0.33,0.33,0,1,1-.01.66,0.954,0.954,0,0,0-.59.387,1.455,1.455,0,0,1-1.05.564,1.3,1.3,0,0,1-.96-0.611,0.741,0.741,0,0,0-.47-0.37h-0.01a0.943,0.943,0,0,0-.54.363,1.543,1.543,0,0,1-1.08.588h0a1.515,1.515,0,0,1-1.07-.6,0.9,0.9,0,0,0-.57-0.383,0.949,0.949,0,0,0-.6.423,1.438,1.438,0,0,1-1.04.622h-0.01a1.443,1.443,0,0,1-1.04-.63,0.869,0.869,0,0,0-.53-0.4h0A0.33,0.33,0,1,1,1305.18,376.238ZM1317.85,388h-15.7a2.152,2.152,0,0,1-2.15-2.155,0.332,0.332,0,0,1,.33-0.33h17.57v-3.862a0.9,0.9,0,0,0-.9-0.907h-14a0.9,0.9,0,0,0-.9.907v2.709a0.33,0.33,0,1,1-.66,0v-2.709a1.566,1.566,0,0,1,1.56-1.568h12.86v-4.026a0.741,0.741,0,0,0-.74-0.743h-10.24a0.741,0.741,0,0,0-.74.743v2.9a0.33,0.33,0,1,1-.66,0v-2.9a1.4,1.4,0,0,1,1.4-1.4h3.9v-3.237a0.325,0.325,0,0,1,.33-0.33h0.56V370.6a1.091,1.091,0,0,1-.75-1.032,3,3,0,0,1,.84-1.458,0.325,0.325,0,0,1,.48,0,3,3,0,0,1,.84,1.458,1.091,1.091,0,0,1-.75,1.032v0.493h0.56a0.325,0.325,0,0,1,.33.33v3.237h3.9a1.4,1.4,0,0,1,1.4,1.4v4.026H1317a1.566,1.566,0,0,1,1.56,1.568v3.862h1.11a0.332,0.332,0,0,1,.33.33A2.152,2.152,0,0,1,1317.85,388Zm-7.43-18.436a0.484,0.484,0,1,0-.84,0A0.42,0.42,0,1,0,1310.42,369.564Zm0.15,2.185h-1.14v2.907h1.14v-2.907Zm7.66,14.426h-17.54a1.5,1.5,0,0,0,1.46,1.165h15.7a1.5,1.5,0,0,0,1.46-1.165h-1.08Z" transform="translate(-1300 -368)"/>
</svg>
