<svg xmlns="http://www.w3.org/2000/svg" width="20" height="20" viewBox="0 0 20 20">
  <defs>
    <style>
      .cls-1 {
        fill: #fff;
        fill-rule: evenodd;
      }
    </style>
  </defs>
  <path id="edit" class="cls-1" d="M1368.43,727.432l-3.59,3.631a0.616,0.616,0,0,1-.28.17l-2.64.743a0.7,0.7,0,0,1-.18.024,0.629,0.629,0,0,1-.46-0.2,0.664,0.664,0,0,1-.16-0.657l0.78-2.614a0.71,0.71,0,0,1,.16-0.277l3.59-3.638a1.95,1.95,0,0,1,2.78,0A2.025,2.025,0,0,1,1368.43,727.432Zm-2.9-.812-2.43,2.454-0.39,1.3,1.33-.374,2.41-2.441Zm1.97-1.066a0.642,0.642,0,0,0-.92,0l-0.13.128,0.93,0.939,0.12-.128A0.663,0.663,0,0,0,1367.5,725.554Zm-6.15.071h-4.08a0.664,0.664,0,0,1,0-1.328h4.08A0.664,0.664,0,0,1,1361.35,725.625Zm2.65-5.313h-6.73a0.664,0.664,0,0,1,0-1.328H1364A0.664,0.664,0,0,1,1364,720.312Zm0,2.657h-6.73a0.664,0.664,0,0,1,0-1.328H1364A0.664,0.664,0,0,1,1364,722.969Zm2.61-.565a0.656,0.656,0,0,1-.65-0.664v-4.084a1.322,1.322,0,0,0-1.31-1.328h-8.03a1.316,1.316,0,0,0-1.31,1.328v11.688a1.316,1.316,0,0,0,1.31,1.328h2.18a0.664,0.664,0,0,1,0,1.328h-2.18a2.638,2.638,0,0,1-2.62-2.656V717.656a2.638,2.638,0,0,1,2.62-2.656h8.03a2.645,2.645,0,0,1,2.62,2.656v4.084A0.658,0.658,0,0,1,1366.61,722.4Z" transform="translate(-1351.5 -713.5)"/>
</svg>
