<svg id="fat_1_" data-name="fat (1)" xmlns="http://www.w3.org/2000/svg" width="19.535" height="35.491" viewBox="0 0 19.535 35.491">
  <path id="Path_2066" data-name="Path 2066" d="M219.994-455.766a3.486,3.486,0,0,0-2.627,3.914,3.471,3.471,0,0,0,5.867,1.908,3.471,3.471,0,0,0-1.757-5.849A2.8,2.8,0,0,0,219.994-455.766Z" transform="translate(-211.005 455.88)" fill="#fff"/>
  <path id="Path_2067" data-name="Path 2067" d="M154.319-370.719a8.052,8.052,0,0,0-7.083,5.316,14.507,14.507,0,0,0-.959,6.648c.124,1.269.186,1.456.568,1.855a1.27,1.27,0,0,0,2.077-.275,8.65,8.65,0,0,0,.257-1.731,18.19,18.19,0,0,1,.8-4.846c.115-.249.124-.2.08.612a70.847,70.847,0,0,0,.444,12.479,37.066,37.066,0,0,0,1.3,5.982c.391,1.243.985,1.819,1.846,1.819a1.457,1.457,0,0,0,1.056-.382,1.821,1.821,0,0,0,.541-1.225c.107-.666.32-3.976.453-7.18.053-1.243.115-2.352.142-2.467a.213.213,0,0,1,.426,0c.027.115.089,1.42.142,2.911.178,5.05.337,6.994.621,7.544a1.291,1.291,0,0,0,1.349.754,1.393,1.393,0,0,0,1.376-.746c.746-.959,1.713-5.361,2.1-9.55a70.612,70.612,0,0,0,.186-10.207l-.044-.533.133.355a20.933,20.933,0,0,1,.7,4.189c.266,2.53.32,2.663,1.189,2.867a1.363,1.363,0,0,0,1.491-.737,13.253,13.253,0,0,0,.2-3.781c-.257-3.612-1.473-6.3-3.63-8.023C160.283-370.506,157.922-371.012,154.319-370.719Z" transform="translate(-146.217 378.35)" fill="#fff"/>
</svg>
