<svg xmlns="http://www.w3.org/2000/svg" width="72.767" height="72" viewBox="0 0 72.767 72">
  <g id="_1422994-200" data-name="1422994-200" transform="translate(-13 191.85)">
    <path id="Path_1961" data-name="Path 1961" d="M113.353-191.291a3.141,3.141,0,0,0-1.574,1.408,4.758,4.758,0,0,1-1.822,1.864,13.131,13.131,0,0,0-5.26,14.412,8.6,8.6,0,0,0,1.284,2.816,2.851,2.851,0,0,1,.621,1.864,3.285,3.285,0,0,0,3.355,3.52c1.574,0,3.272-1.077,3.272-2.071,0-.207.621-.663,1.408-.994a12.07,12.07,0,0,0,5.218-5.425,13.5,13.5,0,0,0,.621-9.318,14.98,14.98,0,0,1-.787-3.727c-.124-2.319-.745-3.562-2.319-4.348C115.921-192.036,115.092-192.036,113.353-191.291Zm3.4,2.443a2.13,2.13,0,0,1,.787,2.278,4.712,4.712,0,0,0,.456,2.816,10.125,10.125,0,0,1-2.029,11.472,9.928,9.928,0,0,1-3.147,2.154c-.994.29-1.491.7-1.657,1.408a1.122,1.122,0,0,1-1.242,1.035c-.911,0-1.035-.166-.911-1.408a2.818,2.818,0,0,0-.7-2.278,11.119,11.119,0,0,1-2.112-5.591c0-3.6,2.9-8.366,5.8-9.567.745-.29,1.242-.828,1.242-1.284a3.029,3.029,0,0,1,2.195-2.029A4.114,4.114,0,0,1,116.749-188.847Z" transform="translate(-53.431)" fill="#fff"/>
    <path id="Path_1962" data-name="Path 1962" d="M114.234-174.072a12.4,12.4,0,0,0-2.071,7.91c.124,2.236.207,2.485,1.077,2.609s.911,0,.911-2.278a11.23,11.23,0,0,1,1.905-6.958c1.118-1.7,1.16-2.816.083-3.023C115.642-175.894,115.021-175.314,114.234-174.072Z" transform="translate(-58.081 -9.392)" fill="#fff"/>
    <path id="Path_1963" data-name="Path 1963" d="M24.182-183.583c-3.313,5.342-2.443,11.223,2.154,14.868a11.578,11.578,0,0,0,2.443,1.615c.207,0,.745.787,1.242,1.739a38.675,38.675,0,0,0,2.195,3.644l1.325,1.864-2.071-.166c-1.574-.083-2.236-.373-2.816-1.077-2.236-2.858-7.579-2.029-8.987,1.408-.414.953-.87,1.242-2.195,1.449a5.764,5.764,0,0,0-3.065,1.657L13-155.173l.166,4.514c.166,4.763.373,5.549,1.988,7a5.434,5.434,0,0,0,7.165-.248l.953-.87.911,1.242.87,1.284H20.04v2.526c0,11.43,9.318,21.328,22.2,23.565,4.763.828,13.667.373,17.767-.953,10.768-3.52,18.015-12.59,18.015-22.529v-2.609H73.879c-3.023,0-4.141-.124-4.141-.538,0-.87.58-1.367,2.485-2.112a35.083,35.083,0,0,0,9.194-5.922c4.431-4.6,5.549-12.59,3.023-21.163-.621-2.112-.7-2.154-2.236-2.154-2.319,0-7.744,1.491-10.643,2.9a16.125,16.125,0,0,0-7.5,6.916c-1.7,3.23-2.236,5.715-2.4,10.85l-.166,4.266-3.106,1.822c-2.858,1.7-3.727,2.651-2.816,3.23a27.62,27.62,0,0,0,4.141.7c2.112.29,3.81.663,3.81.87,0,.166-6.419.331-14.288.331H34.949v-.953a25.335,25.335,0,0,0-1.242-4.638c-1.118-3.437-1.16-3.769-.5-4.224,2.443-1.739,3.023-3.52,1.864-5.881-.58-1.16-.663-1.739-.331-2.278.29-.5.207-.994-.373-2.029-.456-.7-1.242-2.112-1.781-3.106L31.553-167.1l.87-1.781c2.443-5.011,1.822-9.732-1.7-12.963C27.081-185.239,25.466-185.654,24.182-183.583Zm4.017,2.361a7.637,7.637,0,0,1,3.562,6.171c0,1.905-.87,5.053-1.408,5.053-.331,0-1.781-3.893-2.443-6.543-.331-1.325-.663-1.739-1.284-1.739-1.284,0-1.325.828-.207,4.307l1.035,3.23-.994-.911a7.482,7.482,0,0,1-2.071-6.046c.331-1.946,1.449-4.721,1.864-4.721A9.1,9.1,0,0,1,28.2-181.222Zm54.377,10.685c.621,2.071,1.449,9.153,1.16,9.484-.331.29-5.839-2.443-7.786-3.852-1.864-1.367-4.141-3.52-4.141-3.893,0-.538,7.662-3.065,9.815-3.23C81.913-172.07,82.327-171.366,82.576-170.537ZM79.3-160.515l3.934,1.946-.58,1.822c-.994,2.94-5.26,6.958-9.608,8.987-1.946.911-3.852,1.781-4.224,1.905-.456.166-.828.87-.994,1.946-.331,1.946-1.077,2.154-2.112.5-.994-1.532-1.325-1.739-3.023-1.739-2.568-.041-2.733-.58-.621-1.864l1.946-1.118-.29-2.361a28.013,28.013,0,0,1,1.7-11.637,16.928,16.928,0,0,1,2.526-3.81l1.449-1.491,2.982,2.485A38.893,38.893,0,0,0,79.3-160.515Zm-52.969.207a5.264,5.264,0,0,1,1.367,2.071c.663,1.574,1.449,1.905,2.278.87,1.367-1.657,4.348.373,3.313,2.278a3.007,3.007,0,0,1-1.7,1.118,2.467,2.467,0,0,0-1.491.745,25.132,25.132,0,0,0,1.242,5.094c1.16,3.686,1.325,4.638.87,4.8-.414.166-1.035-.7-2.029-2.692-1.491-2.94-2.361-3.769-3.23-2.9-.331.331-.083,1.242,1.077,3.562,1.367,2.816,1.449,3.106.7,3.106-.5,0-1.615-1.077-2.982-2.858-1.532-2.029-2.485-2.9-3.106-2.9-.663-.041-.953.207-.953.7,0,.828-1.408,2.278-2.609,2.692-1.035.373-2.94-.663-3.479-1.905a3.063,3.063,0,0,1,0-2.568c.331-1.16.331-1.7-.041-2.319a3.113,3.113,0,0,1,3.81-4.514c1.491.538,1.905.248,1.905-1.491C21.283-160.1,24.347-161.841,26.335-160.308Zm49.614,21.37v1.657H22.111V-140.6H75.949Zm-.87,4.638a20.372,20.372,0,0,1-5.508,8.863c-5.218,5.26-11.637,7.62-20.541,7.62-6.129,0-9.649-.787-14.329-3.065A18.791,18.791,0,0,1,28.24-125.6a21.9,21.9,0,0,1-5.26-8.7l-.414-1.325H75.494Z" transform="translate(0 -4.105)" fill="#fff"/>
    <path id="Path_1964" data-name="Path 1964" d="M153.46-181.2a3.538,3.538,0,0,0,.331,4.845c1.325,1.16,2.278,1.242,3.976.373a3.171,3.171,0,0,0,.953-4.68C157.6-182.155,154.578-182.445,153.46-181.2Z" transform="translate(-81.817 -5.782)" fill="#fff"/>
    <path id="Path_1965" data-name="Path 1965" d="M71.754-179.453c-.248.373-.29,1.449-.041,3.189a13.7,13.7,0,0,1,.248,2.816,11.015,11.015,0,0,1-1.325-2.568c-.953-2.278-1.284-2.733-2.029-2.609-2.029.29-1.822,6.958.331,9.608l.953,1.242-.994,1.408a5.658,5.658,0,0,0-.953,3.313c0,1.615.621,2.982,5.011,10.6,2.775,4.8,5.425,9.235,5.839,9.857a2.038,2.038,0,0,0,3.355.414c.621-.663.621-1.822.248-11.886-.331-8.7-.58-11.513-1.077-12.59-.7-1.449-2.692-2.94-3.934-2.94-.621,0-.745-.414-.745-2.485a8.99,8.99,0,0,0-2.692-6.75C72.748-180.074,72.375-180.2,71.754-179.453Zm7,13.17a2.648,2.648,0,0,1,1.118,2.568c-.124,1.16-.331,1.408-1.781,1.822-1.2.331-1.657.663-1.657,1.242,0,.663.29.787,1.739.7l1.739-.083.207,2.154c.207,1.988.538,13.957.414,13.957-.041,0-.911-1.491-1.946-3.313-1.491-2.609-1.781-3.4-1.325-3.52.331-.124.911-.29,1.242-.414a1.124,1.124,0,0,0,.621-1.077c0-.828-.166-.87-1.864-.663-1.739.248-1.905.207-2.485-.953-.621-1.2-.621-1.242.414-1.491.787-.207,1.035-.5.953-1.16-.124-.745-.373-.87-1.657-.745-1.367.083-1.657-.041-2.4-1.242-1.035-1.7-1.035-1.822,0-2.112a1.12,1.12,0,0,0,.828-1.118c0-.828-.166-.911-1.449-.7-1.325.207-1.449.166-1.449-.745,0-1.408,1.7-3.189,3.562-3.769C76.309-167.774,77.427-167.65,78.753-166.283Z" transform="translate(-31.752 -6.993)" fill="#fff"/>
    <path id="Path_1966" data-name="Path 1966" d="M19.079-150.047a3.264,3.264,0,0,0,2.485,5.591c1.988,0,3.106-1.2,3.106-3.313A3.186,3.186,0,0,0,19.079-150.047Z" transform="translate(-2.973 -23.85)" fill="#fff"/>
    <path id="Path_1967" data-name="Path 1967" d="M112.071-121.5A3.022,3.022,0,0,0,110-118.233c0,1.449.207,1.946,1.118,2.65a3.391,3.391,0,0,0,5.508-2.526C116.626-120.221,113.934-122.208,112.071-121.5Z" transform="translate(-56.828 -41.128)" fill="#fff"/>
    <path id="Path_1968" data-name="Path 1968" d="M69.934-103.953a3.384,3.384,0,0,0,2.65,5.508,3.426,3.426,0,0,0,3.355-4.183A3.54,3.54,0,0,0,69.934-103.953Z" transform="translate(-32.914 -50.81)" fill="#fff"/>
  </g>
</svg>
