<svg xmlns="http://www.w3.org/2000/svg" width="40" height="40" viewBox="0 0 40 40">
  <defs>
    <style>
      .cls-1 {
        fill: #e1e1e1;
        fill-rule: evenodd;
      }
    </style>
  </defs>
  <path id="Shape_32_copy_9" data-name="Shape 32 copy 9" class="cls-1" d="M471.837,736.8l-0.374.331c-0.35.316-2.407,1.883-8.591,1.883s-8.237-1.571-8.589-1.887l-0.374-.326L451.1,709.413a1.764,1.764,0,0,1,.439-1.355,1.728,1.728,0,0,1,1.29-.579h20.1a1.729,1.729,0,0,1,1.29.579,1.762,1.762,0,0,1,.439,1.355Zm-0.492-26.158a1.728,1.728,0,0,0-1.29-.579H455.694a1.726,1.726,0,0,0-1.29.579,1.758,1.758,0,0,0-.439,1.355l2.4,23.381c0.725,0.346,2.634,1.026,6.508,1.026,3.851,0,5.763-.672,6.512-1.031l2.4-23.376A1.769,1.769,0,0,0,471.345,710.643ZM462.62,734.2a8.881,8.881,0,0,1-3.968-.816l-1.413-15.154c3.3-.153,7.017.7,10.043,0.766,0.465,0.009.939-.025,1.41-0.048l-1.344,14.436A15.618,15.618,0,0,1,462.62,734.2Z" transform="translate(-442.875 -703.235)"/>
</svg>
