<svg xmlns="http://www.w3.org/2000/svg" width="40" height="40" viewBox="0 0 40 40">
  <defs>
    <style>
      .cls-1 {
        fill: #2499ff;
        fill-rule: evenodd;
      }
    </style>
  </defs>
  <path id="glassFill" class="cls-1" d="M656.815,737.507l-0.374.332c-0.35.316-2.407,1.882-8.591,1.882s-8.237-1.57-8.589-1.886l-0.374-.327-2.812-27.388a1.76,1.76,0,0,1,.438-1.355,1.729,1.729,0,0,1,1.29-.58h20.1a1.73,1.73,0,0,1,1.29.58,1.762,1.762,0,0,1,.439,1.355Zm-0.492-26.157a1.729,1.729,0,0,0-1.29-.58H640.672a1.727,1.727,0,0,0-1.29.58,1.758,1.758,0,0,0-.439,1.355l2.4,23.38c0.725,0.347,2.634,1.027,6.508,1.027,3.851,0,5.763-.672,6.512-1.032l2.4-23.375A1.769,1.769,0,0,0,656.323,711.35ZM647.6,734.905a8.89,8.89,0,0,1-3.968-.815l-1.413-15.154c3.3-.154,7.017.7,10.043,0.765,0.465,0.009.939-.024,1.41-0.047l-1.344,14.436A15.635,15.635,0,0,1,647.6,734.905Z" transform="translate(-627.844 -703.954)"/>
</svg>
