<svg id="healthy-food" xmlns="http://www.w3.org/2000/svg" width="80.934" height="80.945" viewBox="0 0 80.934 80.945">
  <path id="Path_1930" data-name="Path 1930" d="M46.6-511.7a4.067,4.067,0,0,0-1.17.9c-.885,1-1,1.455-1.091,4.364l-.079,2.688-1.787-2.4c-1.629-2.166-1.882-2.435-2.688-2.83a4.733,4.733,0,0,0-3.384-.237,4.584,4.584,0,0,0-2.1,2.008,4.8,4.8,0,0,0-.016,3.384c.158.3,1.565,2.23,3.115,4.3,2.451,3.273,2.783,3.779,2.577,3.953a13.3,13.3,0,0,0-2.277,3.336c-1.439,3-1.471,4.87-.142,11.749.522,2.767.933,5.028.9,5.06-.032.016-.538.111-1.154.221a17.4,17.4,0,0,0-2.166.553l-1.059.348-.047-4.348-.047-4.364-.427-.791c-.617-1.123-.664-1.17-4.08-4.032l-3.083-2.577-.079-4.127c-.079-3.922-.095-4.159-.443-4.87a4.126,4.126,0,0,0-2.23-1.992,104.516,104.516,0,0,0-13.362.032,4.708,4.708,0,0,0-2.04,1.9c-.332.617-.348.886-.4,4.839l-.063,4.19L4.62-487.837C-.14-483.9.034-484.264.1-478.16c.047,4.1.063,4.348.4,4.965a9.117,9.117,0,0,0,.759,1.154l.427.49-.427.49a9.11,9.11,0,0,0-.759,1.154c-.332.632-.348.838-.4,5.946-.047,5.882-.032,5.993,1.012,7.369l.553.712-.411.49a7.907,7.907,0,0,0-.759,1.139c-.348.648-.348.664-.348,10.136v9.488l.459.838a5.8,5.8,0,0,0,2.34,2.277l.68.364,24.668.047c21.647.032,24.889,0,26.455-.206a32.708,32.708,0,0,0,23.023-14.753,41.2,41.2,0,0,0,3.02-6.12,6.047,6.047,0,0,0,.206-2.261,4.229,4.229,0,0,0-.6-2.372,5.684,5.684,0,0,0-4.3-2.989l-.838-.079.664-1.376a33.644,33.644,0,0,0,2.214-6.736,32.721,32.721,0,0,0-.079-9.377A25.942,25.942,0,0,0,71.618-490.1a17.64,17.64,0,0,0-1.629-1.692c-.063,0-2.483,2.372-5.376,5.266-3.558,3.542-5.234,5.123-5.171,4.855,1.344-5.93.775-9.836-1.961-13.077l-.9-1.075,2.688-3.558c1.471-1.961,2.846-3.858,3.052-4.222a3.95,3.95,0,0,0-2.182-5.645,3.408,3.408,0,0,0-2.5,0c-1.091.316-1.739.933-3.605,3.431l-1.55,2.072-.079-2.767c-.079-2.4-.126-2.83-.427-3.4a4.715,4.715,0,0,0-2.04-1.9A5.134,5.134,0,0,0,46.6-511.7Zm2.562,2.751.4.38v9.5H47.187v-9.5l.4-.38a1.3,1.3,0,0,1,.791-.4A1.3,1.3,0,0,1,49.164-508.947Zm-10.326,2.72a88.6,88.6,0,0,1,5.5,7.574c0,.221-.269.427-.949.727l-.965.427-2.83-3.8c-3.02-4.016-3.163-4.3-2.5-5A1.142,1.142,0,0,1,38.838-506.228Zm20.794-.079c.712.664.569.965-2.483,5.028L54.3-497.5l-.933-.427c-.68-.3-.949-.522-.965-.727a87.644,87.644,0,0,1,5.5-7.574A1.158,1.158,0,0,1,59.632-506.307Zm-36.464,7.859a1.854,1.854,0,0,1,.3,1.218v.854H10.66v-.87c0-.727.063-.949.4-1.281l.4-.4,5.708.047,5.708.047Zm28.368,2.783a10.27,10.27,0,0,1,3.7,2.562,10.176,10.176,0,0,1,2.23,6.009c0,.459-.364,2.736-.791,5.06l-.806,4.238-2.688,2.7-2.7,2.7-1.249-.759a17.373,17.373,0,0,0-6.815-2.261c-.9-.095-1.059-.158-1.123-.459-.047-.19-.506-2.451-1-5.013-1.091-5.55-1.17-7.052-.538-9A10.573,10.573,0,0,1,42.412-494a11.548,11.548,0,0,1,3.684-1.977,9.438,9.438,0,0,1,2.593-.19A6.649,6.649,0,0,1,51.536-495.665Zm-28.067,3.242v1.265H10.66v-2.53H23.469Zm4.032,6.61c2.435,2.04,3.242,2.8,3.526,3.352.332.68.348.854.348,5.155v4.443l-.664.443a14.077,14.077,0,0,0-1.6,1.328c-1.139,1.075-1.407.949-.806-.364a7.019,7.019,0,0,0,.253-4.633,6.486,6.486,0,0,0-6.04-4.633c-.791,0-.949-.063-1.344-.474a7.921,7.921,0,0,0-7.084-1.992,7.518,7.518,0,0,0-3.922,2.151,7.78,7.78,0,0,0-2.34,5.914c.047.759.016.838-.633,1.471-.633.633-.743.68-1.534.68a2.623,2.623,0,0,1-2.372-1.044l-.459-.585-.047-3.653c-.047-3.558-.032-3.669.316-4.317a19.847,19.847,0,0,1,3.526-3.273l3.147-2.625H24.338Zm44.26.427a24.748,24.748,0,0,1,2.751,5.534,23.171,23.171,0,0,1-1.818,18.659l-.759,1.344H70.4c-.854,0-1.55-.032-1.55-.047,0-.032.4-.648.886-1.376a17.766,17.766,0,0,0,2.435-5.044,20.528,20.528,0,0,0,0-13.172,22.465,22.465,0,0,0-3.431-6.357l-.38-.459.759-.775.759-.775.522.6C70.669-486.92,71.286-486.082,71.76-485.387Zm-4.3,2.609a18.946,18.946,0,0,1,2.894,7.7l.111.838H56.28l4.981-4.981c2.736-2.736,5.044-4.965,5.139-4.934A8.973,8.973,0,0,1,67.459-482.777Zm-49.636,2.656.759.332-.886.87a6.482,6.482,0,0,0-1.929,3.89l-.095.949h2.657l.206-.838a3.843,3.843,0,0,1,1.945-2.546,3.567,3.567,0,0,1,4.507.727,3.358,3.358,0,0,1,1.059,2.577,3.636,3.636,0,0,1-1.3,2.846,2.652,2.652,0,0,0-.648.775,7.041,7.041,0,0,0,1.139,1.312l1.139,1.139-.443.759a17.919,17.919,0,0,0-2.245,6.452c-.095.9-.142,1.028-.443,1.028-.221,0-1.249-.9-3.052-2.736L17.46-465.3l.411-1.012a8.266,8.266,0,0,0,.49-1.85l.095-.854H17.1c-1.36,0-1.376,0-1.471.427a4.016,4.016,0,0,1-.98,2.135,3.662,3.662,0,0,1-5.455.237,3.7,3.7,0,0,1,1-6.1,3.589,3.589,0,0,0,.949-.633,8.808,8.808,0,0,0-.237-.9,5.2,5.2,0,0,1,2.925-6.357A5.712,5.712,0,0,1,17.823-480.121Zm26.122,7.78a14.686,14.686,0,0,1,9.582,8,19.562,19.562,0,0,1,1.17,3.89l.095.6H26.3l.095-.6a19.563,19.563,0,0,1,1.17-3.89,14.728,14.728,0,0,1,11.006-8.317A16.841,16.841,0,0,1,43.946-472.341Zm26.407,1.613a18.972,18.972,0,0,1-4.665,10.12l-.664.759H57.513l-.111-1.028a17.125,17.125,0,0,0-3.937-8.744,6.311,6.311,0,0,1-.743-.933,1.832,1.832,0,0,1,.427-.553l.427-.443H70.464ZM5.284-468.862a6.241,6.241,0,0,0,3.8,5.914,4.5,4.5,0,0,0,2.688.49,5.343,5.343,0,0,0,2.688-.427l1.028-.443,1.708,1.708,1.692,1.692-2.087.079c-1.9.079-2.2.126-3.02.522a7.843,7.843,0,0,0-1.692,1.233l-.775.775H7.925c-3.257,0-3.4-.016-3.906-.364a4.119,4.119,0,0,1-.854-.791c-.316-.427-.332-.633-.332-5.218v-4.775l.38-.522a2.607,2.607,0,0,1,1.724-1.139C5.268-470.127,5.284-470.064,5.284-468.862Zm71.41,12.144a3.724,3.724,0,0,1,1.486,1.882c0,.174-5.93.206-32.416.206-22.533,0-32.416-.047-32.416-.158a2.978,2.978,0,0,1,.917-1.471c1-.949-.965-.885,31.736-.854l30.044.032ZM10.5-453.682c0,.98.285,1.834,1.36,4.1a32.2,32.2,0,0,0,14.31,14.88l1.8.949H4.731l-.633-.364a2.907,2.907,0,0,1-.98-.98l-.364-.633L2.8-444.29l.032-8.555.427-.553c.743-.98,1.123-1.075,4.364-1.075H10.5Zm66.35,3.447a29.921,29.921,0,0,1-23.529,16.3c-1.992.221-13.124.221-15.117,0a29.7,29.7,0,0,1-10.468-3.163,29.548,29.548,0,0,1-12.808-12.65,17.547,17.547,0,0,1-.949-2.024c0-.126,8.507-.174,31.862-.174H77.706Z" transform="translate(-0.078 512.037)" fill="#5dc267"/>
  <path id="Path_1931" data-name="Path 1931" d="M264-378.656v1.344h13.124V-380H264Z" transform="translate(-222.267 400.878)" fill="#5dc267"/>
  <path id="Path_1932" data-name="Path 1932" d="M280-345.656v1.344h8.064V-347H280Z" transform="translate(-235.737 373.097)" fill="#5dc267"/>
  <path id="Path_1933" data-name="Path 1933" d="M280-312.656v1.344h8.064V-314H280Z" transform="translate(-235.737 345.315)" fill="#5dc267"/>
  <path id="Path_1934" data-name="Path 1934" d="M256-246.672v1.312l1.233.206A9.137,9.137,0,0,1,264-240.378a2.072,2.072,0,0,0,.506.759,7.063,7.063,0,0,0,2.4-1.075,9.808,9.808,0,0,0-1.66-2.91,12.12,12.12,0,0,0-8.491-4.4H256Z" transform="translate(-215.532 289.751)" fill="#5dc267"/>
  <path id="Path_1935" data-name="Path 1935" d="M117.175-120.188a5.2,5.2,0,0,0-1.091.87c-.095.285,2.119,3.02,3.732,4.586a26.787,26.787,0,0,0,14.99,7.5,22.546,22.546,0,0,0,2.467.237h.885l.111-.965c.19-1.818.332-1.66-1.724-1.866a24.786,24.786,0,0,1-16.84-9.187c-.474-.633-1.012-1.312-1.186-1.5l-.316-.379Z" transform="translate(-97.738 182.749)" fill="#5dc267"/>
  <path id="Path_1936" data-name="Path 1936" d="M272-48.656v1.344h2.846V-50H272Z" transform="translate(-229.002 123.06)" fill="#5dc267"/>
</svg>
