<svg xmlns="http://www.w3.org/2000/svg" width="24" height="24" viewBox="0 0 28.235 28.235">
  <defs>
    <style>
      .cls-1 {
        fill: #b7b7b7;
        fill-rule: evenodd;
      }
    </style>
  </defs>
  <path id="height" class="cls-1" d="M457.267,621v-0.714H458V621h-0.733Zm-1.467-.714h0.733V621H455.8v-0.714Zm-1.467,0h0.734V621h-0.734v-0.714Zm-0.366-18.572H454.7v0.715h-0.733v-0.715Zm0,11.786a0.362,0.362,0,0,1-.367.357h-1.1v5.357A1.812,1.812,0,0,1,450.667,621h-2.2a0.362,0.362,0,0,1-.367-0.357v-6.786H447a0.362,0.362,0,0,1-.367-0.357v-5a1.813,1.813,0,0,1,1.834-1.786h0.2a2.1,2.1,0,0,1-.565-1.428,2.2,2.2,0,0,1,4.4,0,2.1,2.1,0,0,1-.565,1.428h0.2a1.813,1.813,0,0,1,1.834,1.786v5Zm-3.667-9.643a1.429,1.429,0,1,0,1.467,1.429A1.45,1.45,0,0,0,450.3,603.857Zm-0.225,3.571,0.225,0.657,0.225-.657h-0.45Zm3.158,1.072a1.087,1.087,0,0,0-1.1-1.072H451.3l-0.65,1.9a0.369,0.369,0,0,1-.695,0l-0.649-1.9h-0.836a1.088,1.088,0,0,0-1.1,1.072v4.643H448.1V608.5h0.733v11.786h1.1v-6.429h0.734v6.429a1.088,1.088,0,0,0,1.1-1.072V608.5H452.5v4.643h0.733V608.5Zm-0.733-6.786h0.733v0.715H452.5v-0.715Zm-1.467,0h0.734v0.715h-0.734v-0.715Zm-1.466,0H450.3v0.715h-0.733v-0.715Zm-1.467,0h0.733v0.715H448.1v-0.715Zm-1.467,0h0.734v0.715h-0.734v-0.715ZM445.533,621h-5.166a0.362,0.362,0,0,1-.367-0.357V601.357a0.362,0.362,0,0,1,.367-0.357h5.166a0.362,0.362,0,0,1,.367.357v19.286A0.362,0.362,0,0,1,445.533,621Zm-0.366-2.143H443.7v-0.714h1.467v-1.429h-0.734V616h0.734v-1.429H443.7v-0.714h1.467v-1.429h-0.734v-0.714h0.734v-1.428H443.7v-0.715h1.467v-1.428h-0.734v-0.715h0.734V606H443.7v-0.714h1.467v-1.429h-0.734v-0.714h0.734v-1.429h-4.434v18.572h4.434v-1.429ZM453.6,621h-0.733v-0.714H453.6V621Z" transform="translate(-434.882 -596.882)"/>
</svg>
