<svg xmlns="http://www.w3.org/2000/svg" width="24" height="23" viewBox="0 0 24 23">
  <defs>
    <style>
      .cls-1 {
        fill: none;
        stroke: #b7b7b7;
        stroke-width: 1px;
        fill-rule: evenodd;
      }
    </style>
  </defs>
  <path id="lactating" class="cls-1" d="M452.971,563.323a4.485,4.485,0,0,1-2.183,2.071l1.58,5.6H440.919l1.623-5.412c-1.219-.656-2.364-1.539-2.517-2.261-0.246-1.162,1.191-6.181,1.191-6.181a2.792,2.792,0,0,1,3.111-1.855l4.291-.012a3.125,3.125,0,0,1,3.142,1.908S453.221,562.146,452.971,563.323Zm-5.86-2.665a1.356,1.356,0,0,0-.572,0v0a1.878,1.878,0,0,0-.778.364,1.634,1.634,0,1,0-1.625,1.849,1.48,1.48,0,0,0,.65-0.153c0.014,0.452.329,0.9,1.427,1.042a5.383,5.383,0,0,0,.58.043h0c0.056,0,.116,0,0.176,0a4.7,4.7,0,0,0,3.609-1.724A26.746,26.746,0,0,0,447.111,560.658Zm-0.4-6.209a3.247,3.247,0,1,1,2.848-3.221A3.054,3.054,0,0,1,446.706,554.449Z" transform="translate(-434.5 -548)"/>
</svg>
