<svg xmlns="http://www.w3.org/2000/svg" width="85.848" height="85.968" viewBox="0 0 85.848 85.968">
  <g id="excercise" transform="translate(0 0)">
    <path id="Path_1928" data-name="Path 1928" d="M26.54-511.576A30.908,30.908,0,0,0,.886-486.964a24.421,24.421,0,0,0-.386,5.88,24.449,24.449,0,0,0,1.025,8.518,30.082,30.082,0,0,0,7.644,13.037l1.932,2-.3.924c-.286.84-.3,1.529-.269,9.593l.05,8.686.554,1.126a6.476,6.476,0,0,0,8.417,3.058c.487-.218.924-.4.941-.4s.067.89.118,1.982a6.342,6.342,0,0,0,.5,2.94,7.648,7.648,0,0,0,3.142,3.259,4.763,4.763,0,0,0,2.789.47,5.027,5.027,0,0,0,2.806-.454,7.009,7.009,0,0,0,3.091-3.074l.487-1.008.05-4.166.05-4.15H63.4l.05,4.066.05,4.082.538,1.126a6.051,6.051,0,0,0,5.292,3.629,6.185,6.185,0,0,0,4.116-.958c2-1.294,2.906-3.192,2.906-6.082a8.053,8.053,0,0,1,.084-1.663,3.957,3.957,0,0,1,.722.319,6.572,6.572,0,0,0,8.652-2.906l.538-1.025v-18.312l-.47-.907a6.52,6.52,0,0,0-8.7-2.99l-.79.386-.067-1.226a6.529,6.529,0,0,0-3.8-5.393,4.706,4.706,0,0,0-2.638-.454,4.714,4.714,0,0,0-2.789.538,7,7,0,0,0-3.142,3.209c-.454.941-.454,1.025-.5,5.04l-.067,4.066H46.4l1.646-1.092A30.876,30.876,0,0,0,61.518-475.59a28.083,28.083,0,0,0,.3-5.494,24.421,24.421,0,0,0-.386-5.88,30.964,30.964,0,0,0-24.31-24.377A43.83,43.83,0,0,0,26.54-511.576Zm8.3,2.789a28.707,28.707,0,0,1,10.483,3.646A28.1,28.1,0,0,1,58.8-485.284a33.161,33.161,0,0,1-.084,8.837A28.246,28.246,0,0,1,40.7-454.808l-1.63.6H33.5l.05-1.294.05-1.277,1.814-.319a24.394,24.394,0,0,0,18.732-15.775,20.688,20.688,0,0,0,1.294-8.3,17.756,17.756,0,0,0-.454-5.225,24.474,24.474,0,0,0-18.514-18.514,17.754,17.754,0,0,0-5.225-.454,20.509,20.509,0,0,0-4.788.319A24.4,24.4,0,0,0,7.2-485.788a33.848,33.848,0,0,0-.017,9.307,24.837,24.837,0,0,0,8.6,14.364l1.243,1.008-.941.118a7.4,7.4,0,0,0-2.016.655l-1.092.554-1.546-1.546A27.276,27.276,0,0,1,3.272-481.05a26.332,26.332,0,0,1,2.134-10.836,28.3,28.3,0,0,1,14.952-14.952A27.88,27.88,0,0,1,34.839-508.787Zm-5.023,7.207c0,.79.067,1.075.336,1.344a1.841,1.841,0,0,0,1.848.168,2.673,2.673,0,0,0,.672-1.982v-.554l.89.118c2.134.252,6.317,1.5,6.871,2.05.1.1.017.386-.185.722-.773,1.26-.286,2.5.991,2.5.739,0,1.142-.3,1.6-1.159a1.31,1.31,0,0,1,.353-.521c.42,0,4.066,3.394,5.023,4.7.823,1.092.823,1.109.017,1.579a2.033,2.033,0,0,0-.89.89,1.638,1.638,0,0,0,.4,1.68,2.15,2.15,0,0,0,2.05-.134c.336-.2.622-.286.722-.185.571.571,1.814,4.788,2.066,6.955l.1.974H51.673c-1.277,0-1.7.336-1.7,1.344s.42,1.344,1.7,1.344h1.008l-.1.958a28.063,28.063,0,0,1-1.445,5.729c-.3.706-.571,1.327-.6,1.361-.034.05-.353-.084-.706-.286a2.137,2.137,0,0,0-2.083-.151,1.638,1.638,0,0,0-.4,1.68,2.033,2.033,0,0,0,.89.89,2.439,2.439,0,0,1,.739.538,17.768,17.768,0,0,1-2.6,3.142,16.93,16.93,0,0,1-3.158,2.6c-.067,0-.235-.235-.37-.521-.454-.857-.857-1.159-1.6-1.159a1.185,1.185,0,0,0-1.344,1.294,2.709,2.709,0,0,0,.336,1.193,2.592,2.592,0,0,1,.336.689c0,.353-4.385,1.764-6.149,1.966l-.874.1-.067-1.31a6.3,6.3,0,0,0-5.9-6.065,6.568,6.568,0,0,0-5.141,1.865.854.854,0,0,1-.941.319,1.517,1.517,0,0,0-1.865.874,2.843,2.843,0,0,1-.521.756,20.991,20.991,0,0,1-3.142-2.621,18.934,18.934,0,0,1-2.621-3.158,1.31,1.31,0,0,1,.521-.353c.857-.454,1.159-.857,1.159-1.6,0-1.277-1.243-1.764-2.5-.991-.336.2-.622.286-.722.185-.571-.571-1.814-4.788-2.066-6.972l-.1-.958h1.008c1.277,0,1.7-.336,1.7-1.344s-.42-1.344-1.7-1.344H9.639l.1-.974c.252-2.167,1.5-6.384,2.066-6.955.1-.1.386-.017.722.185,1.26.773,2.5.286,2.5-.991,0-.739-.3-1.142-1.176-1.6l-.521-.269.336-.538a24.382,24.382,0,0,1,5.006-5.006l.538-.336.269.521c.454.874.857,1.176,1.6,1.176,1.277,0,1.764-1.243.991-2.5-.2-.336-.286-.622-.185-.722.5-.5,4.2-1.68,6.233-1.966C29.917-502.672,29.816-502.722,29.816-501.58ZM28.153-464.1a3.81,3.81,0,0,1,2.15,1.882c.353.722.353.857.353,15.708,0,16.4.05,15.658-.974,16.716a3.633,3.633,0,0,1-5.275-.017c-1.025-1.226-.991-.521-.941-16.918.05-16.464-.017-15.338,1.092-16.447A3.488,3.488,0,0,1,28.153-464.1Zm43.26.218a3.548,3.548,0,0,1,1.9,2.1c.134.4.185,4.771.185,15.422,0,16.229.05,15.506-.974,16.565a3.58,3.58,0,0,1-5.376-.118,4.186,4.186,0,0,1-.706-1.226c-.134-.454-.168-5.141-.134-15.607l.05-14.969.5-.806a3.2,3.2,0,0,1,1.411-1.294A3.134,3.134,0,0,1,71.413-463.88ZM17.8-458.051a4.255,4.255,0,0,1,2.453,2.066c.286.638.319,1.277.319,8.635,0,8.82.017,8.635-1.126,9.811a3.482,3.482,0,0,1-5.662-.89l-.437-.89v-15.994l.42-.84A3.444,3.444,0,0,1,15.939-458,2.471,2.471,0,0,1,17.8-458.051Zm64.042.42a3.653,3.653,0,0,1,1.747,2.638c.1.622.151,3.629.118,8.316l-.05,7.342-.4.806a3.947,3.947,0,0,1-2.436,1.982,3.7,3.7,0,0,1-4.267-2.57c-.252-1.008-.286-15.389-.034-16.279A3.591,3.591,0,0,1,81.846-457.631Zm-18.43,11.155v4.872h-29.9v-9.744h29.9Z" transform="translate(-0.5 511.793)" fill="#5dc267"/>
    <path id="Path_1929" data-name="Path 1929" d="M159.4-423.664c-.319.319-.336.554-.336,5.762v5.426l-.672.3a5.415,5.415,0,0,0-2.318,2.587,4.589,4.589,0,0,0,6.485,5.561l1.025-.5,2.923,1.68c3.209,1.865,3.7,2,4.4,1.277a1.331,1.331,0,0,0,.235-1.646c-.118-.286-1.176-.974-3.192-2.15l-3.007-1.73v-1.008a4,4,0,0,0-.4-1.865,5.157,5.157,0,0,0-2.3-2.3l-.487-.168v-5.443c0-5.225-.017-5.46-.336-5.779a1.375,1.375,0,0,0-1.008-.336A1.375,1.375,0,0,0,159.4-423.664Zm2.2,14.431a1.672,1.672,0,0,1-1.193,2.873,1.393,1.393,0,0,1-1.193-.487,1.672,1.672,0,0,1,1.193-2.873A1.393,1.393,0,0,1,161.6-409.233Z" transform="translate(-129.746 438.749)" fill="#5dc267"/>
  </g>
</svg>
