<svg id="roasted-chicken" xmlns="http://www.w3.org/2000/svg" width="80.907" height="67.55" viewBox="0 0 80.907 67.55">
  <path id="Path_1979" data-name="Path 1979" d="M189.7-469.493a1.572,1.572,0,0,0-.7,1.233,4.748,4.748,0,0,1-.774,1.343,4.367,4.367,0,0,0-1.043,3.382,4.575,4.575,0,0,0,1.2,2.45c.79,1,.79,1.438,0,2.434a4.575,4.575,0,0,0-1.2,2.45,4.367,4.367,0,0,0,1.043,3.382c.964,1.312.98,1.675.142,2.687-1.075,1.3-1.486,2.624-1.106,3.525a1.251,1.251,0,0,0,2.371-.474,3.532,3.532,0,0,1,.774-1.422,4.151,4.151,0,0,0,1.122-2.971,4.091,4.091,0,0,0-1.059-2.719c-1.043-1.185-1.043-1.6-.032-2.861a4,4,0,0,0,1.091-2.829,4.281,4.281,0,0,0-1.185-2.94c-.9-1.059-.885-1.565.126-2.719,1-1.17,1.375-2.908.79-3.635A1.438,1.438,0,0,0,189.7-469.493Z" transform="translate(-157.549 469.65)" fill="#fff"/>
  <path id="Path_1980" data-name="Path 1980" d="M245.576-469.748c-.4.158-.6.49-.727,1.233a4.142,4.142,0,0,1-.727,1.264A3.967,3.967,0,0,0,243-464.342a4.133,4.133,0,0,0,1.17,2.956c.822.98.869,1.328.284,2.118-1.075,1.438-1.359,2.039-1.422,2.971a3.662,3.662,0,0,0,.948,3.114c1.043,1.359,1.059,1.739.142,2.892A3.911,3.911,0,0,0,243-447.668c0,.885.19,1.233.79,1.454a1.22,1.22,0,0,0,1.675-1.075,4.1,4.1,0,0,1,.7-1.359,4.066,4.066,0,0,0,1.17-3,3.975,3.975,0,0,0-1.185-2.971c-.838-1.043-.806-1.454.158-2.718a4.064,4.064,0,0,0,.964-3.635,4.317,4.317,0,0,0-.964-1.9c-.964-1.264-1-1.675-.174-2.719a4.138,4.138,0,0,0,1.154-2.26c.205-.964.016-1.612-.585-1.881A1.136,1.136,0,0,0,245.576-469.748Z" transform="translate(-204.593 469.888)" fill="#fff"/>
  <path id="Path_1981" data-name="Path 1981" d="M67.6-299.7a3.514,3.514,0,0,0-2.244,2.592c-.19.632-.19.632-1.96,1.217l-1.77.6-.98-.632a8.035,8.035,0,0,0-4.694-1.312c-1.422.016-1.675.063-4.694,1.091l-3.208,1.075-1.3-.6A33.1,33.1,0,0,0,34.9-298.439c-1.233,0-1.707.332-1.707,1.2,0,1.012.332,1.185,2.687,1.422,1.17.111,2.5.284,2.94.363,8.788,1.707,15.742,6.859,18.619,13.8a16.614,16.614,0,0,1,1.312,6.085l.095,2.1H50.988c-8.282,0-8.582.032-8.851.711a1.357,1.357,0,0,0,.269,1.47l.364.348,17.481.032c16.943.047,17.5.063,17.813.348a1.073,1.073,0,0,1,.016,1.517c-.316.316-.522.316-37.617.316s-37.3,0-37.617-.316a1.073,1.073,0,0,1,.016-1.517c.316-.284.869-.3,17.734-.348l17.4-.032.364-.348a1.318,1.318,0,0,0,.063-1.723c-.253-.3-.474-.379-1.407-.427L35.91-273.5v-.98a3.57,3.57,0,0,0-2.007-3.446,5.028,5.028,0,0,0-2.15-.411l-1.5-.079.063-.853a3.613,3.613,0,0,0-3.446-3.9c-.948-.016-1.422.348-1.422,1.122a1.129,1.129,0,0,0,1.043,1.328c.743.19,1.328.759,1.328,1.28a1.237,1.237,0,0,1-.4.68l-.379.4h-4.41c-4.394,0-4.41,0-4.742-.364a1.092,1.092,0,0,1,.506-1.849,9.723,9.723,0,0,1,1.976-.158c1.407,0,1.565-.032,1.881-.364a1.393,1.393,0,0,0,.19-1.533c-.237-.443-1.012-.632-2.513-.632-2.387.016-3.572.49-4.394,1.786a2.723,2.723,0,0,0-.443,1.881v1.2l-.869.111a3.588,3.588,0,0,0-3.382,3.746l-.016,1.075H8.108l-.095-.68a19.006,19.006,0,0,1,.522-5.042c1.533-5.9,5.785-10.779,12.091-13.861a30.473,30.473,0,0,1,8.472-2.608,1.251,1.251,0,0,0,1.059-1.9c-.3-.68-.948-.743-3.129-.316a31.625,31.625,0,0,0-8.013,2.75c-6.67,3.367-11.269,8.756-12.945,15.157a25.025,25.025,0,0,0-.648,5.9l.079.6H4.394a4.383,4.383,0,0,0-3.145.917A3.418,3.418,0,0,0,0-269.752c0,2.023,1.138,3.256,3.319,3.619a3.879,3.879,0,0,1,1.644,1.075,6.163,6.163,0,0,1,1.8,2.481,5.569,5.569,0,0,0,2.687,3.035l.743.379H70.729l.743-.379a5.569,5.569,0,0,0,2.687-3.035,6.163,6.163,0,0,1,1.8-2.481,3.879,3.879,0,0,1,1.644-1.075,3.641,3.641,0,0,0,3.019-2.039,4.577,4.577,0,0,0,0-3.177,4,4,0,0,0-2.308-1.944,49.1,49.1,0,0,0-5.69-.174h-5.01l.474-.6a11.679,11.679,0,0,0,.98-1.581l.49-.98h3.066l.3.553a3.554,3.554,0,0,0,6.085-.158,3.655,3.655,0,0,0,.063-3.288l-.364-.585.316-.6a3.376,3.376,0,0,0-.616-4.157,3.351,3.351,0,0,0-3.556-.917,4.468,4.468,0,0,0-2.07,1.739c-.095.269-.269.3-2.118.3H68.658l-.269-.458a10.088,10.088,0,0,0-3-2.624c-.9-.474-.9-.474-.9-1.217v-.727L66-289.272c1.5-.506,1.5-.506,1.849-.19a3.65,3.65,0,0,0,5.516-.948,3.226,3.226,0,0,0,.348-1.707,2.863,2.863,0,0,0-1.059-2.5c-.506-.49-.537-.569-.411-1.106a3.638,3.638,0,0,0-1.976-3.841A4.632,4.632,0,0,0,67.6-299.7Zm1.818,2.639a1.09,1.09,0,0,1-.032,1.47,1.807,1.807,0,0,0,0,2.055,1.806,1.806,0,0,0,.79.411c1.328.269,1.312,1.96-.016,1.96a1.054,1.054,0,0,1-.806-.458c-.822-.964-1.486-1.027-3.525-.332-.774.253-1.47.474-1.533.474-.079,0-.285-.332-.474-.759-.19-.411-.379-.79-.411-.853a8.541,8.541,0,0,1,1.675-.664c2.007-.68,2.545-1.106,2.671-2.165C67.9-297.111,68.737-297.68,69.417-297.064Zm-10.669,3.05a5.751,5.751,0,0,1,3.161,4.931L62-287.849H56.8l-.759-.917a32.223,32.223,0,0,0-4.2-3.888l-.9-.664,1.833-.616C55.714-294.9,56.9-294.914,58.748-294.013Zm4.678,9.151a6.071,6.071,0,0,1,3.6,3.635,5.953,5.953,0,0,1-.237,4.331,6.279,6.279,0,0,1-4.631,3.382l-.79.079-.095-2.26a18.853,18.853,0,0,0-2.023-8.235,12.563,12.563,0,0,1-.616-1.328,9.327,9.327,0,0,1,1.944-.032A9.6,9.6,0,0,1,63.427-284.862Zm13.15,1.833c.553.537.49.806-.332,1.565-.6.553-.727.774-.727,1.233a1.354,1.354,0,0,0,.711,1.375,1.641,1.641,0,0,1,.6.585c.174.332.158.443-.126.822-.364.49-.9.632-1.249.332a3.158,3.158,0,0,1-.553-.806c-.522-1.027-1.043-1.233-3.177-1.233H69.859v-.774a4.652,4.652,0,0,0-.095-1.027c-.079-.221.142-.253,1.96-.253,2.308,0,2.608-.111,3.193-1.264C75.423-283.471,75.96-283.661,76.577-283.029Zm-55.951,8.377v1.185H17.433c-1.754,0-3.3-.047-3.446-.095a1.269,1.269,0,0,1-.569-1.359c.316-.838.49-.869,4.2-.9l3.019-.016Zm12.423-.727A1.127,1.127,0,0,1,33-273.83c-.332.364-.348.364-4.726.364-4.015,0-4.41-.032-4.742-.284a1.175,1.175,0,0,1,.411-1.944c.174-.063,2.229-.111,4.552-.095l4.252.032Zm39.75,9.863a10.881,10.881,0,0,0-.933,1.691c-.632,1.375-1.106,1.865-1.96,2.07-.79.174-58.1.174-58.89,0-.853-.205-1.328-.7-1.96-2.07a10.881,10.881,0,0,0-.933-1.691l-.4-.522H73.194Z" transform="translate(0 326.713)" fill="#fff"/>
  <path id="Path_1982" data-name="Path 1982" d="M146.024-246.787a1.315,1.315,0,0,0,.205,2.2,1.389,1.389,0,0,0,1.47-.285,1.472,1.472,0,0,0-.047-1.77A1.54,1.54,0,0,0,146.024-246.787Z" transform="translate(-122.522 282.188)" fill="#fff"/>
  <path id="Path_1983" data-name="Path 1983" d="M120.991-225.336c-1.122.174-1.059,2.339.079,2.418.98.063,1.486-.332,1.486-1.185C122.556-225.02,121.955-225.478,120.991-225.336Z" transform="translate(-101.187 264.009)" fill="#fff"/>
  <path id="Path_1984" data-name="Path 1984" d="M156.3-217.691a1.259,1.259,0,0,0,.838,2.2,1.23,1.23,0,0,0,1.059-1.865A1.177,1.177,0,0,0,156.3-217.691Z" transform="translate(-131.228 257.835)" fill="#fff"/>
</svg>
