<svg id="overweight" xmlns="http://www.w3.org/2000/svg" width="13.427" height="23.47" viewBox="0 0 13.427 23.47">
  <path id="Path_2075" data-name="Path 2075" d="M222.3-455.537a2.411,2.411,0,0,0-1.634,1.264,1.676,1.676,0,0,0-.17.97,1.673,1.673,0,0,0,.182,1,2.3,2.3,0,0,0,3.785.547,1.974,1.974,0,0,0,.552-1.516,1.934,1.934,0,0,0-.664-1.622,1.938,1.938,0,0,0-.723-.511A2.757,2.757,0,0,0,222.3-455.537Z" transform="translate(-215.89 455.571)" fill="#78a1ff"/>
  <path id="Path_2076" data-name="Path 2076" d="M147.56-370.545c-1.993.176-3.28,1.146-4.326,3.25a12.085,12.085,0,0,0-1.117,3.879c-.118,1-.035,1.34.382,1.652a.961.961,0,0,0,.958,0c.27-.206.353-.411.723-1.84a16.671,16.671,0,0,1,.805-2.592l.082-.147-.029.176c-.018.094-.135.623-.264,1.176a39.375,39.375,0,0,0-1.123,6.848c0,.323.018.382.17.535.17.17.176.17.9.17h.723l.223,1.422a14.907,14.907,0,0,0,.658,3.156,1.125,1.125,0,0,0,1.6.594,1.175,1.175,0,0,0,.482-.782c.053-.264.17-1.846.264-3.7.029-.558.059-.746.118-.746.1,0,.123.217.206,1.969.118,2.451.223,3,.652,3.256a1.141,1.141,0,0,0,1.663-.658,20.3,20.3,0,0,0,.682-3.362c.065-.488.135-.94.147-1.011.029-.118.065-.129.8-.147,1.046-.024,1.023.012.976-1.223a23.028,23.028,0,0,0-.511-3.715c-.182-.911-.647-2.992-.858-3.838-.024-.094-.018-.1.029-.029a17.377,17.377,0,0,1,.77,2.469c.505,1.851.617,2.069,1.134,2.157a.938.938,0,0,0,.811-.312l.2-.206-.006-.688a11.158,11.158,0,0,0-.923-3.95c-.935-2.151-2.145-3.3-3.832-3.65A15.788,15.788,0,0,0,147.56-370.545Z" transform="translate(-142.069 375.574)" fill="#78a1ff"/>
</svg>
