<svg xmlns="http://www.w3.org/2000/svg" width="24" height="24" viewBox="0 0 24 24">
  <defs>
    <style>
      .cls-1 {
        fill: #b7b7b7;
        fill-rule: evenodd;
      }
    </style>
  </defs>
  <path id="pregnant" class="cls-1" d="M453.972,510.961a6.917,6.917,0,0,1-1.887,4.144,2.019,2.019,0,0,0-.565,1.4v1.1a0.395,0.395,0,0,1-.789,0v-1.1a2.792,2.792,0,0,1,.781-1.94,6.073,6.073,0,0,0,1.562-5.525,1.82,1.82,0,0,1-1.376.627,1.022,1.022,0,0,0-1.025.991,0.94,0.94,0,0,1,.159.368,1.465,1.465,0,0,1,.732.282,1.829,1.829,0,0,1,.8,1.446,1.032,1.032,0,0,1-.913,1.026,0.6,0.6,0,0,1-.692-0.378,0.377,0.377,0,0,0-.059-0.1,1.987,1.987,0,0,1-1.808.987,3.832,3.832,0,0,1-1.581-.387,2.671,2.671,0,0,1-1.557-1.959,3.469,3.469,0,0,1-.033-1.241c0-.015.007-0.03,0.011-0.045a1.779,1.779,0,0,1-.23-0.876,1.821,1.821,0,0,1,3.642,0,1.785,1.785,0,0,1-.464,1.2,0.355,0.355,0,0,0,.273-0.109,1.25,1.25,0,0,1,.9-0.582c0.025,0,.049,0,0.074,0a1.813,1.813,0,0,1,1.771-1.406,1.023,1.023,0,0,0,1.022-.94,6.062,6.062,0,0,0-.524-0.968l-0.163-.247a1.125,1.125,0,0,1-.454.095h-2.9l-4.164,1.7a3.307,3.307,0,0,1-2.049.142v1.186a3.634,3.634,0,0,1-.19,1.16,10.459,10.459,0,0,0-.162,6.157l0.094,0.337a0.391,0.391,0,0,1-.276.481,0.421,0.421,0,0,1-.105.014,0.4,0.4,0,0,1-.38-0.287l-0.093-.337a11.235,11.235,0,0,1,.173-6.612,2.864,2.864,0,0,0,.15-0.913v-1.5A3.235,3.235,0,0,1,440,505.527V499.6a0.395,0.395,0,0,1,.789,0v5.925a2.457,2.457,0,0,0,1.486,2.251,2.515,2.515,0,0,0,1.94.022l4.236-1.724a0.4,0.4,0,0,1,.15-0.029h2.978a0.335,0.335,0,0,0,.336-0.332,0.885,0.885,0,0,0-.888-0.879h-2.472l-3.9.655a0.814,0.814,0,0,1-.659-0.178,0.8,0.8,0,0,1-.288-0.614v-4.2a0.4,0.4,0,0,1,.79,0v4.2a0.021,0.021,0,0,0,.007.017,0.025,0.025,0,0,0,.018,0l3.933-.661a0.36,0.36,0,0,1,.066,0h0.041a1.1,1.1,0,0,0,1.1-1.093,1.184,1.184,0,0,0-.4-0.883l-3.811-3.389a0.388,0.388,0,0,1-.03-0.552,0.4,0.4,0,0,1,.557-0.029L449.8,501.5a1.961,1.961,0,0,1,.66,1.464,1.858,1.858,0,0,1-.356,1.093h0.928a1.67,1.67,0,0,1,1.677,1.66,1.1,1.1,0,0,1-.1.461,0.425,0.425,0,0,1,.037.047l0.217,0.328a6.882,6.882,0,0,1,.6,1.122,0.372,0.372,0,0,1,.044.109A6.881,6.881,0,0,1,453.972,510.961Zm-6.653-2.195a1.022,1.022,0,1,0,1.031,1.021A1.028,1.028,0,0,0,447.319,508.766Zm1.6,4.222a0.379,0.379,0,0,1-.105.014,0.394,0.394,0,0,1-.38-0.287,0.389,0.389,0,0,1,.276-0.48,1.9,1.9,0,0,0,1.332-.833,0.345,0.345,0,0,0,0-.276,0.171,0.171,0,0,0-.125-0.051,0.572,0.572,0,0,0-.327.261c-0.558.763-1.774,0.307-1.966,0.229a1.9,1.9,0,0,1-.3.025,1.821,1.821,0,0,1-.852-0.21,2,2,0,0,0,1.17,1.819c1.327,0.6,2.1.246,2.38-.29a0.714,0.714,0,0,1,.715-0.447,0.973,0.973,0,0,1,.692.523,0.241,0.241,0,0,0,.062-0.04,0.276,0.276,0,0,0,.086-0.212,1.09,1.09,0,0,0-.468-0.789,0.679,0.679,0,0,0-.383-0.138A2.6,2.6,0,0,1,448.915,512.988Zm-8.241-14.321a0.4,0.4,0,0,1-.558,0,0.388,0.388,0,0,1,0-.553,0.4,0.4,0,0,1,.558,0A0.39,0.39,0,0,1,440.674,498.667Z" transform="translate(-435 -496)"/>
</svg>
