<svg id="protein" xmlns="http://www.w3.org/2000/svg" width="13.764" height="21.625" viewBox="0 0 13.764 21.625">
  <path id="Path_2077" data-name="Path 2077" d="M172.432-435.88c-.39.24-.432.39-.432,1.532s.042,1.292.432,1.532c.192.114.312.12,4.613.12s4.421-.006,4.613-.12c.39-.24.433-.391.433-1.532s-.042-1.292-.433-1.532c-.192-.114-.312-.12-4.613-.12S172.625-435.994,172.432-435.88Z" transform="translate(-170.168 436)" fill="#ffc078"/>
  <path id="Path_2078" data-name="Path 2078" d="M144.473-366.405v.595l-.889.024c-.829.024-.919.036-1.237.192a1.5,1.5,0,0,0-.769.865c-.06.18-.078,1.6-.078,7.1s.018,6.92.078,7.1a1.527,1.527,0,0,0,.739.853l.318.156h11.485l.318-.156a1.527,1.527,0,0,0,.739-.853c.114-.324.114-13.876,0-14.2a1.5,1.5,0,0,0-.769-.865c-.318-.156-.408-.168-1.237-.192l-.889-.024V-367h-7.809Zm5.31,4.271c.306.114.312.264.072,1.273-.12.5-.216.937-.216.955a1.952,1.952,0,0,0,.541.066c.6.03.781.12.781.408a65.471,65.471,0,0,1-3.935,5.851.37.37,0,0,1-.487-.228c-.018-.084.084-1.015.228-2.072l.264-1.916-.511-.024c-.433-.024-.523-.048-.619-.162a.5.5,0,0,1-.108-.252c0-.078.715-2.715,1-3.676.072-.24.294-.276,1.6-.282A9.409,9.409,0,0,1,149.784-362.134Z" transform="translate(-141.5 371.145)" fill="#ffc078"/>
</svg>
