<svg id="protein-powder" xmlns="http://www.w3.org/2000/svg" width="28.87" height="35.491" viewBox="0 0 28.87 35.491">
  <path id="Path_2068" data-name="Path 2068" d="M110-509.755v2.252l.263-.049c.333-.062,19.376-.062,19.715,0l.256.049V-512H110Z" transform="translate(-105.683 512)" fill="#fff"/>
  <path id="Path_2069" data-name="Path 2069" d="M52.294-419.943A5.7,5.7,0,0,0,48.351-417a6.232,6.232,0,0,0-.61,2.335l-.042.714H76.57l-.042-.714a5.6,5.6,0,0,0-4.608-5.287C71.192-420.089,52.987-420.082,52.294-419.943Z" transform="translate(-47.7 426.423)" fill="#fff"/>
  <path id="Path_2070" data-name="Path 2070" d="M48-296.521v6.479H76.828V-303H48ZM63.3-300.3a1.085,1.085,0,0,1,.36.2c0,.028-.215.547-.478,1.15s-.492,1.178-.52,1.261l-.049.159,1.31.014,1.31.021-1.1,2.6c-.61,1.428-1.13,2.626-1.157,2.654a9.52,9.52,0,0,1-1.76-.707,7.021,7.021,0,0,1,.471-1.289c.284-.679.52-1.24.52-1.254s-.6-.028-1.324-.028c-1.033,0-1.317-.021-1.289-.09.021-.042.492-1.157,1.053-2.474s1.06-2.495,1.109-2.613l.1-.229.541.236C62.691-300.561,63.1-300.387,63.3-300.3Z" transform="translate(-47.979 317.483)" fill="#fff"/>
  <path id="Path_2071" data-name="Path 2071" d="M48-86.591a5.786,5.786,0,0,0,1.795,4.116,5.486,5.486,0,0,0,2.64,1.4c.679.152,19.279.152,19.958,0a5.485,5.485,0,0,0,2.64-1.4,5.786,5.786,0,0,0,1.795-4.116V-87H48Z" transform="translate(-47.979 116.452)" fill="#fff"/>
</svg>
