<svg id="soup" xmlns="http://www.w3.org/2000/svg" width="83.263" height="83.302" viewBox="0 0 83.263 83.302">
  <path id="Path_1937" data-name="Path 1937" d="M11.131-503.569c-3.427,1.327-4.368,6.216-1.714,8.887a5.164,5.164,0,0,0,3.847,1.512,5.038,5.038,0,0,0,4.217-1.949c.5-.672.907-.706,2.738-.3a13.61,13.61,0,0,1,9.156,7.459c1.176,2.5,1.26,3.158,1.344,10.08l.067,6.149-2.57.47c-10.651,1.966-17.892,5.342-19.824,9.29-.689,1.394-.638,5.544.118,9.29a35.2,35.2,0,0,0,27.6,27.468,7.352,7.352,0,0,1,2.218.79A27.491,27.491,0,0,0,47.2-421.6c4.1.689,6.636.874,13.843.958,9.19.118,13.961-.185,19.169-1.226,5.527-1.092,9.038-2.94,10.433-5.46.47-.84.5-1.025.5-2.671,0-1.7-.017-1.814-.588-2.839a13.461,13.461,0,0,0-5.578-4.906,2.815,2.815,0,0,1-.806-.487c0-.067.571-.958,1.26-2A34.565,34.565,0,0,0,90.226-451a24.938,24.938,0,0,0,.924-7.308c0-2.671-.034-2.906-.4-3.662-.823-1.663-3.209-3.73-5.88-5.074a50.8,50.8,0,0,0-6.77-2.537A95.71,95.71,0,0,0,61.33-472.59l-.924-.1-.286-1.21a11.447,11.447,0,0,0-8.6-8.182,16.106,16.106,0,0,0-6.586,0,14.3,14.3,0,0,0-5.057,2.52l-1.058.857v-3.007a20.591,20.591,0,0,0-1.025-7.493,20.127,20.127,0,0,0-5.275-8.417,20.529,20.529,0,0,0-8.618-5.359c-2.453-.773-3.948-.941-8.081-.924C12.425-503.905,11.921-503.872,11.131-503.569Zm7.526,2.5a18.357,18.357,0,0,1,11.844,5.46,18.991,18.991,0,0,1,5.309,10.282c.1.538.235,4.267.3,8.282l.1,7.308.487,1.008a7.582,7.582,0,0,0,3.209,3.209l1.008.487,8.954.05c6.955.034,8.938.084,8.938.252a12.325,12.325,0,0,1-.336,1.445c-1.7,6.065-7.291,9.66-13.961,8.938a12.238,12.238,0,0,1-8.954-5.376,11.129,11.129,0,0,1-1.646-3.629c-.336-1.126-.353-1.68-.47-11.676-.1-10.214-.118-10.534-.487-11.743a16.425,16.425,0,0,0-11.29-11.273,14.2,14.2,0,0,0-3.276-.454c-2.251-.1-2.184-.134-2.957,1.277a2.463,2.463,0,0,1-2.15,1.193,2.543,2.543,0,0,1-.454-5.04A29.643,29.643,0,0,1,18.658-501.066ZM50.83-479.31a9.194,9.194,0,0,1,5.93,4.586,4.8,4.8,0,0,1,.622,3.058,4.744,4.744,0,0,1-.554,2.906l-.571,1.142-7.073-.05c-6.787-.05-7.123-.067-7.846-.4a4.668,4.668,0,0,1-2.184-2.335,5.738,5.738,0,0,1-.134-1.831c.151-3.125,2.89-6.082,6.535-7.056A14.28,14.28,0,0,1,50.83-479.31Zm13.1,9.912c11.844,1.327,21.554,4.687,23.923,8.266.521.79.722,1.714.319,1.445-.118-.067-.773-.5-1.445-.941-3.058-2.033-8.182-3.965-13.86-5.225a80.912,80.912,0,0,0-12.348-1.781h-.974l.336-1.092.353-1.092.672.084C61.28-469.684,62.64-469.533,63.934-469.4Zm-33.18,1.831v1.243l-.79.118c-1.529.218-5.678,1.092-7.526,1.6a37.634,37.634,0,0,0-10.4,4.25c-.638.437-1.176.79-1.21.79-.252,0,.017-.924.454-1.562,1.394-2.1,5.762-4.385,11.39-5.93,1.848-.5,7.274-1.714,7.879-1.73C30.687-468.81,30.754-468.457,30.754-467.567Zm34.608,3.31a57.722,57.722,0,0,1,17.388,4.771c1.982.974,4.1,2.335,4.116,2.638,0,.252-2.016,1.546-3.612,2.318-4.3,2.083-11.592,3.914-18.984,4.771a133.569,133.569,0,0,1-28.728.084c-7.879-.89-15.238-2.7-19.606-4.822-1.646-.806-3.662-2.1-3.662-2.352,0-.269,2.05-1.6,3.612-2.369a41.828,41.828,0,0,1,7.9-2.755c2.033-.521,6.518-1.462,6.955-1.462a4.684,4.684,0,0,1,.6,1.462,21.794,21.794,0,0,0,.874,2.318,15.081,15.081,0,0,0,10.164,7.879,26.6,26.6,0,0,0,7.661,0A14.893,14.893,0,0,0,61.431-463.3l.286-1.445.521.067C62.523-464.644,63.934-464.459,65.362-464.257Zm-50.988,12.2c5.9,2.957,15.406,4.973,27.1,5.762a159.3,159.3,0,0,0,22.126-.5c10.366-1.176,18.665-3.461,23.319-6.434.538-.353.958-.521.958-.4,0,1.126-1.546,5.712-2.7,8.131a42.984,42.984,0,0,1-3.7,5.88c-.185.151-.672.067-2.083-.37a59.913,59.913,0,0,0-8.148-1.7,106.047,106.047,0,0,0-13.91-.252c-11.189,1.042-19.354,4.418-21.874,9.089a4.069,4.069,0,0,0-.588,2.722c0,1.058-.067,1.646-.185,1.646a18.191,18.191,0,0,1-1.764-.521,32.5,32.5,0,0,1-20.21-19.5,34.894,34.894,0,0,1-1.445-5.124c0-.118.37.034.89.353C12.627-452.985,13.635-452.43,14.374-452.061Zm48.132,14.868a14.717,14.717,0,0,1,1.68,5.208v.638h2.906l-.1-1.226a17.516,17.516,0,0,0-1.562-5.292,13.98,13.98,0,0,1-.571-1.344,43.794,43.794,0,0,1,6.132.4c3.024.4,2.7.2,3.629,2.167a17.138,17.138,0,0,1,1.663,4.771v.521h2.856v-.638a13.109,13.109,0,0,0-1.092-4.066,8.587,8.587,0,0,1-.521-1.462,30.385,30.385,0,0,1,5.225,1.865c2.7,1.277,4.8,2.99,5.393,4.385,1.663,3.982-4.452,6.72-17.069,7.644-3.142.235-12.986.235-16.128,0-11.189-.823-17.3-3.058-17.3-6.367a3.742,3.742,0,0,1,1.294-2.722c1.848-1.982,5.191-3.662,9.677-4.855,2.335-.622,1.982-.79,3.31,1.714a11.477,11.477,0,0,1,1.512,4.032v.47H56.29v-.689a16.028,16.028,0,0,0-1.764-5.141,4.283,4.283,0,0,1-.622-1.445,14.816,14.816,0,0,1,1.966-.269c1.025-.1,2.083-.218,2.352-.252.286-.017,1.126-.067,1.882-.084l1.394-.017Z" transform="translate(-7.887 503.922)" fill="#5dc267"/>
  <path id="Path_1938" data-name="Path 1938" d="M253.413-335.128c-.739.37-1.378.706-1.428.756a6.722,6.722,0,0,0,.554,1.31l.622,1.26,1.378-.689c.773-.386,1.411-.722,1.445-.739a6.907,6.907,0,0,0-.588-1.31l-.638-1.26Z" transform="translate(-210.974 364.058)" fill="#5dc267"/>
  <path id="Path_1939" data-name="Path 1939" d="M209.126-331.4l-1.126.571.336.722c.37.739,1.025,2.016,1.109,2.1a9.178,9.178,0,0,0,2.419-1.31A10.389,10.389,0,0,0,210.436-332C210.352-331.983,209.764-331.714,209.126-331.4Z" transform="translate(-174.381 360.896)" fill="#5dc267"/>
  <path id="Path_1940" data-name="Path 1940" d="M358.3-235.681a50.071,50.071,0,0,1-5.813,1.848c-2.234.554-5.779,1.243-8,1.546-1.663.235-1.562.084-1.378,1.982.1.907.151,1.025.47,1.025.706,0,5.611-.857,8.232-1.445a62.382,62.382,0,0,0,7.913-2.386c.168-.084.1-.42-.3-1.411C358.887-235.832,358.769-235.95,358.3-235.681Z" transform="translate(-286.711 280.857)" fill="#5dc267"/>
  <path id="Path_1941" data-name="Path 1941" d="M312.387-211.741a2.623,2.623,0,0,0-1.058.218,3.677,3.677,0,0,0-.034,1.428l.134,1.31,1.327-.1a6.849,6.849,0,0,0,1.428-.185,5.829,5.829,0,0,0-.034-1.428c-.118-1.26-.151-1.361-.487-1.327C313.479-211.808,312.891-211.775,312.387-211.741Z" transform="translate(-260.287 260.915)" fill="#5dc267"/>
  <path id="Path_1942" data-name="Path 1942" d="M58.224-171.4c-.638.319-1.142.672-1.126.79a11.583,11.583,0,0,0,1.579,2.7,10.753,10.753,0,0,0,2.268-1.462A14.58,14.58,0,0,0,59.467-172C59.4-171.983,58.845-171.714,58.224-171.4Z" transform="translate(-48.83 227.776)" fill="#5dc267"/>
  <path id="Path_1943" data-name="Path 1943" d="M78.974-140.227a3.447,3.447,0,0,0-.974.974,27.853,27.853,0,0,0,4.166,4.351c.706.588,1.9,1.478,2.638,1.982a32,32,0,0,0,5.023,2.671,10.173,10.173,0,0,0,1.226-2.6c-.017,0-.823-.386-1.8-.874a27.11,27.11,0,0,1-8.064-6.166A5.224,5.224,0,0,0,80.1-141,5.621,5.621,0,0,0,78.974-140.227Z" transform="translate(-66.221 201.984)" fill="#5dc267"/>
  <path id="Path_1944" data-name="Path 1944" d="M207.109-72.53A8.116,8.116,0,0,0,206-70.565c0,.252,1.5.907,3.209,1.411a59.815,59.815,0,0,0,14.4,1.73l4.234.1v-1.344c0-1.646.168-1.562-3.108-1.562-6.132,0-13.272-.991-16.38-2.251l-1.008-.42Z" transform="translate(-172.717 145.325)" fill="#5dc267"/>
  <path id="Path_1945" data-name="Path 1945" d="M210.52-503.546c0,.5-.235.924-1.21,2.083a4.809,4.809,0,0,0-1.31,3.612,5.088,5.088,0,0,0,1.226,3.713c1.142,1.462,1.294,1.764,1.294,2.621,0,.941-.118,1.21-1.109,2.47A5.528,5.528,0,0,0,208-485.906v.722h2.856v-.47a2.363,2.363,0,0,1,.554-1.21c1.831-2.4,1.966-2.738,1.966-4.637a5.021,5.021,0,0,0-1.226-3.562c-1.176-1.512-1.294-1.747-1.294-2.6,0-.941.118-1.21,1.109-2.47a5.522,5.522,0,0,0,1.411-3.158V-504H210.52Z" transform="translate(-174.381 504)" fill="#5dc267"/>
  <path id="Path_1946" data-name="Path 1946" d="M242.52-503.546c0,.5-.235.924-1.21,2.083a4.809,4.809,0,0,0-1.31,3.612,5.088,5.088,0,0,0,1.226,3.713c1.142,1.462,1.294,1.764,1.294,2.621,0,.941-.118,1.21-1.109,2.47A5.528,5.528,0,0,0,240-485.906v.722h2.856v-.47a2.363,2.363,0,0,1,.554-1.21c1.831-2.4,1.966-2.738,1.966-4.637a5.021,5.021,0,0,0-1.226-3.562c-1.176-1.512-1.294-1.747-1.294-2.6,0-.941.118-1.21,1.109-2.47a5.522,5.522,0,0,0,1.411-3.158V-504H242.52Z" transform="translate(-201.005 504)" fill="#5dc267"/>
  <path id="Path_1947" data-name="Path 1947" d="M274.52-503.546c0,.5-.235.924-1.21,2.083a4.809,4.809,0,0,0-1.31,3.612,5.088,5.088,0,0,0,1.226,3.713c1.142,1.462,1.294,1.764,1.294,2.621,0,.941-.118,1.21-1.109,2.47A5.528,5.528,0,0,0,272-485.906v.722h2.856v-.47a2.363,2.363,0,0,1,.554-1.21c1.831-2.4,1.966-2.738,1.966-4.637a5.021,5.021,0,0,0-1.226-3.562c-1.176-1.512-1.294-1.747-1.294-2.6,0-.941.118-1.21,1.109-2.47a5.522,5.522,0,0,0,1.411-3.158V-504H274.52Z" transform="translate(-227.629 504)" fill="#5dc267"/>
</svg>
