<svg xmlns="http://www.w3.org/2000/svg" width="20" height="20" viewBox="0 0 20 20">
  <defs>
    <style>
      .cls-1 {
        fill: #b5b5b5;
        fill-rule: evenodd;
      }
    </style>
  </defs>
  <path id="Time_to" data-name="Time to" class="cls-1" d="M444,481a9,9,0,1,0-8.711-11.269c-0.189.725,0.905,0.745,1.114,0.037a7.918,7.918,0,1,1,7.6,10.149C443.406,479.917,443.42,481,444,481Zm4.691-7.8h-4.786a0.741,0.741,0,0,1-.741-0.741v-5.6a0.741,0.741,0,1,1,1.482,0v4.863h4.045A0.741,0.741,0,0,1,448.691,473.2Zm-8.616.071a0.812,0.812,0,0,0-.054-0.229,0.313,0.313,0,0,0-.086-0.123,0.172,0.172,0,0,0-.109-0.038h-4.163a0.56,0.56,0,0,0-.38.134,0.546,0.546,0,0,0-.154.434v8.018a0.2,0.2,0,0,0,.045.13,0.332,0.332,0,0,0,.147.092,1.224,1.224,0,0,0,.277.058,4.526,4.526,0,0,0,.871,0,1.288,1.288,0,0,0,.277-0.058,0.3,0.3,0,0,0,.147-0.092,0.206,0.206,0,0,0,.041-0.13v-3.3h2.714a0.171,0.171,0,0,0,.109-0.037,0.316,0.316,0,0,0,.086-0.127,0.881,0.881,0,0,0,.055-0.225,3.449,3.449,0,0,0,0-.684,0.79,0.79,0,0,0-.055-0.219,0.29,0.29,0,0,0-.086-0.116,0.181,0.181,0,0,0-.109-0.034h-2.714v-2.379h2.892a0.164,0.164,0,0,0,.109-0.041,0.346,0.346,0,0,0,.086-0.123,0.765,0.765,0,0,0,.054-0.222,2.817,2.817,0,0,0,.017-0.346A2.885,2.885,0,0,0,440.075,473.275Z" transform="translate(-434.063 -462.39)"/>
</svg>
