<svg xmlns="http://www.w3.org/2000/svg" width="20" height="20" viewBox="0 0 20 20">
  <defs>
    <style>
      .cls-1 {
        fill: #b5b5b5;
        fill-rule: evenodd;
      }
    </style>
  </defs>
  <path id="Time_from" data-name="Time from" class="cls-1" d="M580,481a9,9,0,1,0-8.711-11.269c-0.189.725,0.9,0.745,1.114,0.037a7.918,7.918,0,1,1,7.6,10.149C579.406,479.917,579.42,481,580,481Zm4.691-7.8h-4.786a0.741,0.741,0,0,1-.741-0.741v-5.6a0.741,0.741,0,1,1,1.482,0v4.863h4.045A0.741,0.741,0,0,1,584.691,473.2Zm-7.693.071a0.9,0.9,0,0,0-.051-0.229,0.269,0.269,0,0,0-.086-0.123,0.185,0.185,0,0,0-.112-0.038h-6.235a0.184,0.184,0,0,0-.116.038,0.29,0.29,0,0,0-.082.123,0.9,0.9,0,0,0-.051.229,2.885,2.885,0,0,0-.017.348,2.727,2.727,0,0,0,.017.339,0.886,0.886,0,0,0,.051.225,0.321,0.321,0,0,0,.082.127,0.175,0.175,0,0,0,.116.041h2.215v7.13a0.191,0.191,0,0,0,.045.123,0.311,0.311,0,0,0,.147.089,1.369,1.369,0,0,0,.276.054,4.506,4.506,0,0,0,.869,0,1.369,1.369,0,0,0,.276-0.054,0.311,0.311,0,0,0,.147-0.089,0.191,0.191,0,0,0,.045-0.123v-7.13h2.215a0.176,0.176,0,0,0,.112-0.041,0.3,0.3,0,0,0,.086-0.127,0.886,0.886,0,0,0,.051-0.225,2.937,2.937,0,0,0,.017-0.339A3.107,3.107,0,0,0,577,473.275Z" transform="translate(-569.625 -462.39)"/>
</svg>
