<svg id="trackYourDrinkingHabbits" xmlns="http://www.w3.org/2000/svg" width="80" height="80" viewBox="0 0 80 80">
  <defs>
    <style>
      .cls-1 {
        fill: #2499ff;
      }

      .cls-1, .cls-2, .cls-3 {
        fill-rule: evenodd;
      }

      .cls-2 {
        fill: #e2e2e2;
      }

      .cls-3 {
        fill: #2bb4ff;
      }
    </style>
  </defs>
  <path class="cls-1" d="M1263.67,968.427a11.5,11.5,0,0,0-5.92,1.444,15.524,15.524,0,0,1-14.17,0,11.505,11.505,0,0,0-4.41-1.372l3.94,29.736a5.471,5.471,0,0,0,5.35,4.763h17.22a5.471,5.471,0,0,0,5.35-4.763l3.56-26.765a14.169,14.169,0,0,1-5-1.6A11.564,11.564,0,0,0,1263.67,968.427Z" transform="translate(-1210.565 -925)"/>
  <path id="Shape_33_copy" data-name="Shape 33 copy" class="cls-2" d="M1278.14,944.8h-28.19a14.141,14.141,0,0,1-1.55,10.2,15.192,15.192,0,0,1-10.05,7.39l0.45,3.333a14.129,14.129,0,0,1,5.95,1.678,12.845,12.845,0,0,0,11.83,0,15.508,15.508,0,0,1,14.17.016,11.632,11.632,0,0,0,4.2,1.371Z" transform="translate(-1210.565 -925)"/>
  <path id="Shape_33_copy_2" data-name="Shape 33 copy 2" class="cls-3" d="M1224.58,953.608a12.237,12.237,0,0,0,21.48-.014,11.041,11.041,0,0,0,.13-11.136L1235.31,927l-10.87,15.41A11.133,11.133,0,0,0,1224.58,953.608Zm10.64-.008a5.987,5.987,0,0,0,5.94-6.025,1.35,1.35,0,1,1,2.7,0,8.71,8.71,0,0,1-8.64,8.764A1.37,1.37,0,0,1,1235.22,953.6Z" transform="translate(-1210.565 -925)"/>
</svg>
