<svg id="drop" xmlns="http://www.w3.org/2000/svg" width="16.693" height="21.924" viewBox="0 0 16.693 21.924">
  <path id="Path_2134" data-name="Path 2134" d="M70.485-497c-4.1,6.086-4.282,6.358-4.514,6.839a7.449,7.449,0,0,0-.793,3.109,6.813,6.813,0,0,0,.455,2.78,8.133,8.133,0,0,0,4.348,4.624,8.77,8.77,0,0,0,1.9.556c.469.07.469.07.469.193v.123h1.27v-.127c0-.118.009-.127.254-.158a7.81,7.81,0,0,0,2.4-.727,8.052,8.052,0,0,0,4.348-5.465c.048-.206.083-.377.079-.381a2.232,2.232,0,0,0-.381.136,5.054,5.054,0,0,1-2.058.342,5.038,5.038,0,0,1-2.526-.547,5.2,5.2,0,0,1-2.557-2.9,4.841,4.841,0,0,1-.28-1.927,4.782,4.782,0,0,1,.263-1.865,11.1,11.1,0,0,1,1.511-2.557c.587-.867,1.064-1.6,1.064-1.62s-.578-.9-1.283-1.949-1.327-1.966-1.375-2.04l-.092-.136Z" transform="translate(-65.172 500.7)" fill="#70c878"/>
  <path id="Path_2135" data-name="Path 2135" d="M282.875-411.671c-.863,1.283-1.638,2.478-1.716,2.654a3.129,3.129,0,0,0-.236,2.124,3.877,3.877,0,0,0,2.964,2.855,3.685,3.685,0,0,0,3.849-2.093,2.885,2.885,0,0,0,.346-1.519,2.1,2.1,0,0,0-.14-.963,4.406,4.406,0,0,0-.271-.631c-.166-.293-3.17-4.751-3.2-4.755S283.741-412.949,282.875-411.671Z" transform="translate(-271.388 417.796)" fill="#70c878"/>
</svg>
