<svg xmlns="http://www.w3.org/2000/svg" width="24" height="24" viewBox="0 0 24 24">
  <defs>
    <style>
      .cls-1 {
        fill: #ccc;
        fill-rule: evenodd;
      }
    </style>
  </defs>
  <path id="weight_" data-name="weight " class="cls-1" d="M586.506,603H572.494A1.5,1.5,0,0,0,571,604.494v14.012A1.5,1.5,0,0,0,572.494,620h14.012A1.5,1.5,0,0,0,588,618.506V604.494A1.5,1.5,0,0,0,586.506,603Zm0.5,15.506a0.5,0.5,0,0,1-.5.5H572.494a0.5,0.5,0,0,1-.5-0.5V604.494a0.5,0.5,0,0,1,.5-0.5h14.012a0.5,0.5,0,0,1,.5.5v14.012Zm-1.76-11.533a9.576,9.576,0,0,0-11.488,0,0.5,0.5,0,0,0-.195.328,0.5,0.5,0,0,0,.095.37l2.63,3.5a0.5,0.5,0,0,0,.7.1,4.2,4.2,0,0,1,5.034,0,0.5,0.5,0,0,0,.7-0.1l2.629-3.5A0.5,0.5,0,0,0,585.244,606.973Zm-3.041,3.218a5.151,5.151,0,0,0-2.2-.735v-1.518a0.5,0.5,0,0,0-1,0v1.518a5.146,5.146,0,0,0-2.2.735l-2.036-2.709a8.582,8.582,0,0,1,9.478,0Z" transform="translate(-567.5 -599.5)"/>
</svg>
