<svg id="salad" xmlns="http://www.w3.org/2000/svg" width="67.882" height="71.325" viewBox="0 0 67.882 71.325">
  <path id="Path_1985" data-name="Path 1985" d="M120.8-511.652a24.5,24.5,0,0,0-1.973,1.878c-1.595,1.635-1.73,1.946-1.176,2.649a.808.808,0,0,0,.77.351c.446,0,.635-.135,2-1.5l1.5-1.5.419.662a8.54,8.54,0,0,1,1.433,4.906,7.637,7.637,0,0,1-.865,3.851,9.022,9.022,0,0,1-5.541,4.743,7.314,7.314,0,0,1-2.568.257,6.45,6.45,0,0,1-2.811-.365,8.994,8.994,0,0,1-2.595-1.432c0-.054,1.527-1.608,3.379-3.473,2.906-2.919,3.379-3.446,3.379-3.784a1.054,1.054,0,0,0-1.527-.96,48.7,48.7,0,0,0-3.973,3.743c-3.757,3.8-3.852,3.933-3.622,4.96.257,1.162,3.027,2.824,5.595,3.338a14.351,14.351,0,0,0,5.216-.135,11.8,11.8,0,0,0,5.581-3.608,12.481,12.481,0,0,0,2.2-4.3,12.816,12.816,0,0,0,0-5.73c-.5-1.865-1.865-4.216-2.73-4.73A1.975,1.975,0,0,0,120.8-511.652Z" transform="translate(-98.395 512.05)" fill="#fff"/>
  <path id="Path_1986" data-name="Path 1986" d="M317.365-511.568c-.432.419-.514.662-1.419,4.014-.514,1.96-.946,3.757-.946,4a1.794,1.794,0,0,0,1.149,1.541c.514.176.689.149,3.987-.73,3.987-1.041,4.5-1.243,4.784-1.811.568-1.095-.176-3.473-1.608-5.108a7.213,7.213,0,0,0-4.73-2.338A1.346,1.346,0,0,0,317.365-511.568Zm2.608,2.135a5.693,5.693,0,0,1,2.5,2.419c.635,1.284.73,1.2-2.311,2.014-1.46.392-2.7.7-2.743.7a38.624,38.624,0,0,1,1.554-5.541A5.347,5.347,0,0,1,319.973-509.432Z" transform="translate(-270.21 512.007)" fill="#fff"/>
  <path id="Path_1987" data-name="Path 1987" d="M193.3-459.73a1.216,1.216,0,0,0-.014,1.5c.216.257.405.324,1.216.365,1.108.068,1.662-.108,1.892-.595a.976.976,0,0,0-.135-1.189c-.257-.338-.338-.351-1.487-.351C193.749-460,193.532-459.959,193.3-459.73Z" transform="translate(-168.922 467.034)" fill="#fff"/>
  <path id="Path_1988" data-name="Path 1988" d="M79.57-446.585c-1.23.7-3.067,3.571-3.627,5.644a11.733,11.733,0,0,0-.08,6.078c.08.28-.032.392-.767.742a7.638,7.638,0,0,0-2.333,1.947c-.128.2-.24.224-.4.126a17.2,17.2,0,0,0-3.946-1.947,7.918,7.918,0,0,0-3.036-.42,8,8,0,0,0-2.492.238l-.815.252-1.2-.574a12.824,12.824,0,0,0-7.173-1.26c-6.918.826-11.359,6.6-9.65,12.549a12.276,12.276,0,0,0,.911,2.017,8.5,8.5,0,0,0,2.237,2.549l1.55,1.373-.256.644a5.405,5.405,0,0,0,.224,3.515l.336.6H47.313c-1.933,0-2.38.126-3.067.84-.639.658-.767,1.246-.575,2.927a27.69,27.69,0,0,0,8.036,16.484,32.893,32.893,0,0,0,10.513,7.1l1.965.868h25.4L91.28-385a31.825,31.825,0,0,0,15.5-13.361,24.994,24.994,0,0,0,3.4-11.148c.016-1.3-.016-1.443-.415-1.961-.623-.84-1.23-1.036-3.163-1.036-1.406,0-1.614-.028-1.566-.224.032-.14.4-.322.927-.462a8.13,8.13,0,0,0,4.969-3.319c1.182-2.1.4-4.272-2.141-5.868l-.431-.28.655-.77c2.38-2.773,2.892-6.3,1.294-8.865a6.611,6.611,0,0,0-2.412-2.2c-.575-.252-.607-.294-.8-1.387-.3-1.807-1.1-3.571-1.805-3.992a1.382,1.382,0,0,0-1.566.056c-.543.476-.543.868-.016,1.863a10.444,10.444,0,0,1,.719,1.779l.224.84h-.767c-.783,0-.959-.126-.959-.686a5.778,5.778,0,0,0-.559-1.246,7.619,7.619,0,0,0-7.781-3.557,7.813,7.813,0,0,0-3.483,1.373l-.591.462-.543-.49-.543-.5.479-.336a9.778,9.778,0,0,1,6.982-1.877,14.109,14.109,0,0,1,2.349.574,4.141,4.141,0,0,0,1.566.336,1.061,1.061,0,0,0,.687-1.793c-.431-.476-2.668-1.176-4.394-1.359a12.6,12.6,0,0,0-8.484,2.1l-1.07.728-2.924-2.563-2.908-2.549-.863-.056A2.086,2.086,0,0,0,79.57-446.585Zm6.231,6.667,5,4.4-1.038.448a7.5,7.5,0,0,0-3.85,4.468c-.24.658-.32.742-.623.672a6.984,6.984,0,0,0-1.15-.084h-.815l-.671-1.19a6.877,6.877,0,0,0-3.179-3.025c-.943-.378-1.022-.532-1.326-2.227a9.686,9.686,0,0,1,1.821-7.045,3.507,3.507,0,0,1,.7-.8C80.752-444.3,83.052-442.328,85.8-439.919Zm11.343,1.429a4.714,4.714,0,0,1,3.307,3.151c.1.49.1.5-.735.84a15.792,15.792,0,0,0-1.678.854l-.831.518L94.8-435.255l-2.428-2.129.367-.294A5.124,5.124,0,0,1,97.144-438.49Zm-39.829,5.126a14.177,14.177,0,0,1,1.55.5l.911.35-.415.56c-.3.392-.5.518-.671.448a6.983,6.983,0,0,0-3.531-.672,6.527,6.527,0,0,0-2.588.322,6.562,6.562,0,0,0-4.713,5.63,6.161,6.161,0,0,0,3.2,5.8l.751.448-.655.392c-.831.476-1.038.392-2.428-.91a7.644,7.644,0,0,1-2.508-5.252,8.328,8.328,0,0,1,1.038-3.515C49.07-432.524,53.368-434.26,57.314-433.364Zm35.883.49A4.5,4.5,0,0,1,94.859-431c.623,1.092.831,1.261,1.55,1.261.543,0,.719-.084,1.374-.714a11.713,11.713,0,0,1,4.122-2.367c4.537-1.218,7.844,1.681,6.454,5.658a10.024,10.024,0,0,1-2.7,3.613c-.719.574-.815.728-.815,1.2,0,.644.176.8,1.5,1.359a4.627,4.627,0,0,1,2.46,2.087c.511,1.583-1.614,3.207-5.033,3.866-1.518.294-1.965.574-1.965,1.246a1.8,1.8,0,0,0,.24.714,1.863,1.863,0,0,1,.24.49c0,.07-1.725-1.373-3.834-3.221l-3.834-3.361,3.515-3.081c3.2-2.815,3.515-3.137,3.515-3.571a1.159,1.159,0,0,0-1.262-1.12c-.511,0-.831.238-4.09,3.081l-3.515,3.081L90.146-423.1a39.79,39.79,0,0,0-3.163-2.591,2.817,2.817,0,0,0-2.349-.07,10.01,10.01,0,0,0-2.285,2.7,2.647,2.647,0,0,1-.527.742c-.224,0-.527-1.485-.527-2.521.016-2.563,1.678-3.6,4.17-2.6,1.694.686,2.157.448,2.6-1.387a6.959,6.959,0,0,1,1.981-3.627A2.364,2.364,0,0,1,93.2-432.874Zm-14.634.826a5.394,5.394,0,0,1,2.013,2.283c.16.42.128.49-.336.966-1.63,1.625-1.981,4.5-.895,7.311l.367.966-.815-.322a11.451,11.451,0,0,0-3.291-.7l-1.038-.1-2.508-2.185c-2.428-2.115-2.54-2.2-3.179-2.2-.783,0-1.262.42-1.262,1.092,0,.35.3.686,1.837,2.059l1.853,1.639-.943.308c-2.764.868-5.768,3.529-6.582,5.784l-.176.532-.783-.35c-1.566-.686-2.4-1.569-2.4-2.521,0-1.008.975-1.961,2.748-2.7,1.086-.448,1.246-.616,1.246-1.316,0-.336-.24-.658-1.166-1.513a7.157,7.157,0,0,1-2.668-5.112,4.12,4.12,0,0,1,3.627-4.006,8.813,8.813,0,0,1,6.886,2.255,6.435,6.435,0,0,0,1.5,1.05c.735.168,1.214-.14,1.725-1.092.831-1.541,1.981-2.465,3.1-2.479A3.039,3.039,0,0,1,78.563-432.047ZM57.2-429.569c1.15.518,1.118,1.219-.048,1.233a6.453,6.453,0,0,0-3.1,1.4,5.148,5.148,0,0,0-1.646,3.277l-.192,1.246L51.611-423c-2.317-2.3-1.182-5.868,2.173-6.821A5.722,5.722,0,0,1,57.2-429.569Zm1.214,3.8a10.787,10.787,0,0,0,1.869,3.263c.623.742.639.8.367.938a8.658,8.658,0,0,0-1.278.994,3.667,3.667,0,0,0-1.5,3.165,2.957,2.957,0,0,0,.5,1.793,7.149,7.149,0,0,0,3.2,2.675l.991.434H52.346l-.415-.392a2.832,2.832,0,0,1-.751-3.487,5.209,5.209,0,0,1,3.531-2.073c1.2-.2,1.406-.84.719-2.283-.879-1.919-.655-3.613.655-4.692a4.072,4.072,0,0,1,1.965-.8C58.225-426.235,58.353-426.081,58.417-425.773Zm29.6,5.028a6.127,6.127,0,0,0-1.07,3.642,6.029,6.029,0,0,0,1.022,3.683l.575.91H87.27c-1.262,0-1.278,0-1.358-.392a10.642,10.642,0,0,0-2.093-4.538,2.556,2.556,0,0,1-.543-.91A10.778,10.778,0,0,1,85.353-423l.511-.616,1.294,1.134,1.278,1.12Zm9.953,8.1a17.276,17.276,0,0,1-2.8.14c-2.86,0-2.988-.042-4.154-1.064A4.609,4.609,0,0,1,90-419.12l.335-.574,3.93,3.459C97.415-413.476,98.166-412.762,97.974-412.65ZM76.63-419.092a8.462,8.462,0,0,1,3.834,1.821,7.837,7.837,0,0,1,2.492,3.333c.479,1.345.447,1.429-.383,1.429h-.719l-.256-.812c-1.534-4.678-8.26-6.246-12.222-2.829a6.486,6.486,0,0,0-2.013,3.109l-.112.532H65.67l.112-.518a8.409,8.409,0,0,1,4.793-5.49A9.393,9.393,0,0,1,76.63-419.092Zm-.224,3.725a6.636,6.636,0,0,1,1.406.8,4.9,4.9,0,0,1,1.31,1.919,28.229,28.229,0,0,1-4.633.14c-2.54,0-4.633-.028-4.633-.07a4.753,4.753,0,0,1,.959-1.611A5.187,5.187,0,0,1,76.406-415.367Zm31.138,5.084c.208.112.208.378-.032,2a17.913,17.913,0,0,1-.367,2.115c-.1.224-.591.238-5.943.238-5.783,0-5.847,0-6.215.308a.989.989,0,0,0-.048,1.485c.336.308.383.308,5.911.308a40.24,40.24,0,0,1,5.592.14,25.987,25.987,0,0,1-2.045,4.412,29.807,29.807,0,0,1-14.059,12.143l-1.709.742H65.3l-1.6-.672a30.4,30.4,0,0,1-12.749-9.832,28.534,28.534,0,0,1-3.4-6.345l-.208-.588H90.689l.367-.308a.916.916,0,0,0,.032-1.429l-.32-.364H46.722l-.192-.966a8.992,8.992,0,0,1-.272-3.347c.112-.126,6.423-.168,30.611-.168C94.891-410.409,107.417-410.353,107.544-410.283Z" transform="translate(-43.589 455.613)" fill="#fff"/>
  <path id="Path_1989" data-name="Path 1989" d="M276.271-390.655a1.127,1.127,0,0,0-.068,1.622c.257.23.473.27,1.541.27,1.189,0,1.27-.013,1.527-.351a1.1,1.1,0,0,0,.027-1.419c-.23-.284-.392-.324-1.46-.365S276.609-390.911,276.271-390.655Z" transform="translate(-238.389 407.82)" fill="#fff"/>
  <path id="Path_1990" data-name="Path 1990" d="M290.8-362.2c-.7.716-.8.865-.8,1.338a.861.861,0,0,0,.351.824c.622.487,1.216.311,2.108-.622.649-.662.811-1.122.635-1.662a.955.955,0,0,0-1.068-.676C291.689-363,291.432-362.838,290.8-362.2Z" transform="translate(-250.279 383.813)" fill="#fff"/>
  <path id="Path_1991" data-name="Path 1991" d="M182.222-435.649c-.5.635-.378,1.081.5,1.973.919.905,1.419,1.027,1.987.446s.459-1.068-.446-1.987c-.676-.662-.865-.784-1.284-.784A.826.826,0,0,0,182.222-435.649Z" transform="translate(-159.63 446.278)" fill="#fff"/>
  <path id="Path_1992" data-name="Path 1992" d="M157.595-426.51c-.432.216-.595.7-.595,1.73,0,1.189.3,1.635,1.081,1.635.851,0,1.081-.351,1.081-1.7,0-.851-.054-1.176-.23-1.392A1.23,1.23,0,0,0,157.595-426.51Z" transform="translate(-138.772 438.538)" fill="#fff"/>
</svg>
