<svg id="curry" xmlns="http://www.w3.org/2000/svg" width="83.032" height="73.55" viewBox="0 0 83.032 73.55">
  <path id="Path_1969" data-name="Path 1969" d="M182.741-482.708a1.572,1.572,0,0,0-.876,1.217,3.773,3.773,0,0,1-1.087,2.385,9.31,9.31,0,0,0-1.168,1.736,4.649,4.649,0,0,0-.422,2.531,4.953,4.953,0,0,0,1.541,4.073c1.46,1.671,1.444,3.018-.049,4.722a8.668,8.668,0,0,0-1.136,1.655,5.336,5.336,0,0,0-.276,3.18,1.539,1.539,0,0,0,2.336.26,3.227,3.227,0,0,0,.422-1.249,3.834,3.834,0,0,1,.438-1.314c1.882-2.3,2.239-3.1,2.239-5a4.338,4.338,0,0,0-.5-2.353,9.318,9.318,0,0,0-1.168-1.8c-1.428-1.606-1.379-2.937.178-4.689a5.983,5.983,0,0,0,1.428-2.9c.26-1.2.081-1.9-.552-2.288A1.2,1.2,0,0,0,182.741-482.708Z" transform="translate(-150.091 482.845)" fill="#fff"/>
  <path id="Path_1970" data-name="Path 1970" d="M242.322-482.688c-.552.211-.8.6-.925,1.444a4.223,4.223,0,0,1-1.3,2.482,6.051,6.051,0,0,0,.081,7.869c1.038,1.233,1.152,1.493,1.152,2.466s-.13,1.249-1.055,2.353a6,6,0,0,0-1.525,3.164c-.276,1.7.389,2.612,1.72,2.353.649-.114.974-.568,1.12-1.541a4.149,4.149,0,0,1,1.282-2.45,5.538,5.538,0,0,0,1.412-3.878,5.558,5.558,0,0,0-1.412-3.878c-1.006-1.168-1.217-1.639-1.217-2.612,0-.957.146-1.266,1.022-2.272a6.328,6.328,0,0,0,1.558-3.229c.211-1.3,0-1.915-.73-2.223C242.89-482.9,242.842-482.9,242.322-482.688Z" transform="translate(-199.986 482.841)" fill="#fff"/>
  <path id="Path_1971" data-name="Path 1971" d="M301.889-482.331a1.616,1.616,0,0,0-.892,1.493,3.6,3.6,0,0,1-1.12,2.207,5.938,5.938,0,0,0-1.412,5.484,8.218,8.218,0,0,0,1.915,3.294c.487.584.535.73.535,1.736s-.049,1.152-.535,1.736a8.032,8.032,0,0,0-1.915,3.326c-.325,1.314-.211,2.093.373,2.564a1.435,1.435,0,0,0,2.32-.957,3.962,3.962,0,0,1,1.087-2.466,12.374,12.374,0,0,0,1.152-1.671,4.156,4.156,0,0,0,.438-2.531,4.156,4.156,0,0,0-.438-2.531,11.21,11.21,0,0,0-1.184-1.7c-1.493-1.752-1.363-2.823.649-5.306,1.038-1.282,1.428-3.683.7-4.381A1.472,1.472,0,0,0,301.889-482.331Z" transform="translate(-249.915 482.533)" fill="#fff"/>
  <path id="Path_1972" data-name="Path 1972" d="M36.974-328.719a57.067,57.067,0,0,0-8.81,1.525c-5.5,1.509-9.492,3.586-12.331,6.458L14.4-319.309l-.925-.26a11.111,11.111,0,0,1-3.407-1.736A5.884,5.884,0,0,0,5.984-322.8a4.581,4.581,0,0,0-3.959,1.7C.516-319.471.062-317.8.191-314.23c.114,3.618.714,5.387,2.3,6.9,1.7,1.622,3.1,2.044,6.733,2.044a28.636,28.636,0,0,0,3.359-.13l.681-.114.178.925A30,30,0,0,0,15.54-298.7a19.958,19.958,0,0,0,4.137,5.63,19.689,19.689,0,0,0,5.257,3.683l1.493.746v.779a4.413,4.413,0,0,0,1.687,3.5c2.288,2.255,6.133,3.6,11.39,3.975a32.525,32.525,0,0,0,8.113-.471c3.586-.73,5.906-1.8,7.626-3.5a4.413,4.413,0,0,0,1.687-3.5v-.763l1.46-.73a20.083,20.083,0,0,0,5.241-3.667,21.17,21.17,0,0,0,5.987-10.563l.5-1.947.665.13c.373.065,1.866.114,3.342.114a11.731,11.731,0,0,0,3.651-.308,6.982,6.982,0,0,0,5.046-5.208,25.8,25.8,0,0,0,.26-6.685,7.04,7.04,0,0,0-1.752-3.6,5.014,5.014,0,0,0-3.342-1.736,6.261,6.261,0,0,0-4.738,1.558,11.213,11.213,0,0,1-3.375,1.7l-.909.26-1.444-1.428c-3.7-3.7-9.67-6.3-17.247-7.5A61.365,61.365,0,0,0,36.974-328.719Zm8.843,2.9c11.877,1.022,20.93,5.7,21.985,11.358a4.728,4.728,0,0,1,.081,1.379,7.891,7.891,0,0,1-.714,2.19,5.151,5.151,0,0,1-.665-1.022,19.1,19.1,0,0,0-4.786-4.786c-5.095-3.391-12.12-5.225-19.957-5.225-7.934,0-14.992,1.817-20.022,5.143a19.283,19.283,0,0,0-4.884,4.868,5.151,5.151,0,0,1-.665,1.022,7.89,7.89,0,0,1-.714-2.19,4.728,4.728,0,0,1,.081-1.379c.779-4.2,5.971-7.95,13.873-9.995A51.317,51.317,0,0,1,45.817-325.815ZM6.844-319.763a17.713,17.713,0,0,1,1.817,1.12,19.115,19.115,0,0,0,4.04,1.979c.211.065.276.195.195.471a14.609,14.609,0,0,0-.276,5.176c.13,1.833.114,2.5-.016,2.58a22.649,22.649,0,0,1-4.868.243c-2.353-.276-3.683-1.266-4.283-3.213a10.453,10.453,0,0,1-.308-3.294c0-2.58.178-3.375.941-4.251A2.284,2.284,0,0,1,6.844-319.763Zm71.391.016a3.755,3.755,0,0,1,1.752,2,18.183,18.183,0,0,1-.081,6.344c-.617,2-2,2.985-4.462,3.213a20.479,20.479,0,0,1-4.689-.243c-.13-.081-.146-.746-.016-2.612a15.151,15.151,0,0,0-.276-5.143c-.081-.276-.016-.406.195-.471a19.115,19.115,0,0,0,4.04-1.979C76.693-320.023,77.229-320.185,78.235-319.747Zm-29.579,1.282a32.5,32.5,0,0,1,10.774,3.8,14.575,14.575,0,0,1,4.884,4.932,4.942,4.942,0,0,1,.535,1.541c-.162.925-4.932,3.57-8.486,4.754-10.66,3.5-24.484,2.791-33.586-1.72a24.346,24.346,0,0,1-4.04-2.612c-.276-.325-.276-.373-.032-1.12a11.764,11.764,0,0,1,4.511-5.208c3.683-2.482,8.518-4.056,14.732-4.8.308-.032,2.32-.049,4.462-.016A30.551,30.551,0,0,1,48.656-318.465Zm-31.2,13.532a27.873,27.873,0,0,0,2.353,1.574c8.226,4.835,21.4,6.376,33.262,3.894,5.046-1.055,9.914-3.148,12.931-5.565a4.608,4.608,0,0,1,1.1-.763,20.1,20.1,0,0,1-.99,3.732,18.162,18.162,0,0,1-6.506,8.616c-7.3,5.208-23.948,5.955-33.262,1.477a17.409,17.409,0,0,1-9.394-10.984c-.292-.925-.6-1.963-.649-2.3C16.173-305.988,16.173-305.988,17.455-304.933ZM30.906-287.3a49.4,49.4,0,0,0,13.743,1.087,42.654,42.654,0,0,0,9.086-1.412c.276-.081.292-.065.049.389-.552,1.071-2.353,2.207-4.64,2.937-6.474,2.061-15.657,1.006-18.919-2.158-.876-.86-1.12-1.33-.584-1.168C29.786-287.572,30.354-287.426,30.906-287.3Z" transform="translate(-0.17 353.859)" fill="#fff"/>
  <path id="Path_1973" data-name="Path 1973" d="M239.177-251.592a1.448,1.448,0,0,0,.341,2.418,1.351,1.351,0,0,0,1.963-1.347c0-.584-.081-.779-.422-1.055A1.558,1.558,0,0,0,239.177-251.592Z" transform="translate(-199.973 289.372)" fill="#fff"/>
  <path id="Path_1974" data-name="Path 1974" d="M277.209-243.609a5.551,5.551,0,0,0-3.959,2.693,4.34,4.34,0,0,0,.081,2.969,5.534,5.534,0,0,0,2.418,2.158,9.7,9.7,0,0,0,4.932.227,5.286,5.286,0,0,0,2.969-2.109,2.734,2.734,0,0,0,.487-1.785,3.788,3.788,0,0,0-2.434-3.553A7.216,7.216,0,0,0,277.209-243.609Zm3.083,3.2c1.184.552,1.184,1.3-.016,1.85-1.3.584-3.342.341-4.056-.471C275.132-240.251,278.312-241.321,280.291-240.413Z" transform="translate(-228.755 282.524)" fill="#fff"/>
  <path id="Path_1975" data-name="Path 1975" d="M173.955-234.692a6.782,6.782,0,0,0-2.693,1.46,3.428,3.428,0,0,0-.13,4.965,6.088,6.088,0,0,0,5.127,1.785c3.034-.211,5.046-1.866,5.046-4.137,0-1.947-1.33-3.407-3.6-4.024A10.038,10.038,0,0,0,173.955-234.692Zm3.634,3.164c1.071.633,1.038,1.184-.1,1.752a3.808,3.808,0,0,1-3.991-.357c-.633-.568-.519-.876.552-1.412a2.821,2.821,0,0,1,1.931-.357A4.176,4.176,0,0,1,177.59-231.528Z" transform="translate(-142.555 275.084)" fill="#fff"/>
  <path id="Path_1976" data-name="Path 1976" d="M145.383-217.507a1.682,1.682,0,0,0-.162,1.979,1.679,1.679,0,0,0,1.8.389,1.806,1.806,0,0,0,.779-1.72A1.491,1.491,0,0,0,145.383-217.507Z" transform="translate(-121.478 260.884)" fill="#fff"/>
  <path id="Path_1977" data-name="Path 1977" d="M358.367-217.628a1.356,1.356,0,0,0,.049,2.028,1.355,1.355,0,0,0,.99.471,1.69,1.69,0,0,0,1.46-1.363A1.471,1.471,0,0,0,358.367-217.628Z" transform="translate(-299.887 261.021)" fill="#fff"/>
  <path id="Path_1978" data-name="Path 1978" d="M256.3-191.732a1.554,1.554,0,0,0,.032,2.044,1.457,1.457,0,0,0,2-.032,1.457,1.457,0,0,0,.032-2A1.523,1.523,0,0,0,256.3-191.732Z" transform="translate(-214.438 239.295)" fill="#fff"/>
</svg>
